<?xml version="1.0" encoding="UTF-8"?><svg xmlns="http://www.w3.org/2000/svg" xmlns:xlink="http://www.w3.org/1999/xlink" width="768" zoomAndPan="magnify" viewBox="0 0 768 576" height="576" preserveAspectRatio="xMidYMid meet" version="1.0"><defs><clipPath id="clip-0"><path d="M 310.519531 82.175781 L 588.652344 82.175781 L 588.652344 516.367188 L 310.519531 516.367188 Z M 310.519531 82.175781 " clip-rule="nonzero"/></clipPath></defs><rect x="-76.8" width="921.6" fill="rgb(100%, 100%, 100%)" y="-57.6" height="691.2" fill-opacity="1"/><g clip-path="url(#clip-0)"><path fill="rgb(21.958923%, 71.369934%, 100%)" d="M 543.410156 82.230469 C 549.941406 93.195312 559.535156 115.632812 548.65625 141.042969 C 547.894531 142.820312 546.164062 143.890625 544.339844 143.890625 C 543.855469 143.890625 543.367188 143.746094 542.882812 143.589844 C 540.582031 152.023438 536.785156 160.273438 531.324219 168.082031 C 519.175781 185.445312 496.160156 205.433594 467.585938 215.226562 C 468.109375 215.902344 468.523438 216.675781 468.617188 217.597656 C 468.886719 220.175781 467.011719 222.484375 464.433594 222.75 C 373.917969 232.121094 321.238281 252.558594 312.085938 281.855469 C 305.472656 303.015625 321.265625 330.183594 359.023438 362.613281 C 412.058594 408.164062 445.957031 465.457031 450.050781 516.222656 C 454.035156 497.054688 456.15625 476.828125 452.0625 462.960938 C 451.542969 463.148438 451.015625 463.253906 450.492188 463.253906 C 448.601562 463.253906 446.816406 462.101562 446.105469 460.226562 C 426.777344 409.449219 401.050781 381.363281 382.265625 360.859375 C 364.515625 341.484375 351.695312 327.484375 356.777344 307.125 C 359.816406 294.96875 366.867188 285.71875 377.742188 279.640625 C 411.941406 260.523438 472.800781 279.492188 475.371094 280.308594 C 477.179688 280.878906 478.375 282.453125 478.589844 284.222656 C 487.296875 283.625 521.308594 279.164062 552.441406 245.574219 C 588.480469 206.6875 591.859375 151.457031 586.789062 132.296875 C 582.875 117.496094 555.636719 92.753906 543.410156 82.230469 " fill-opacity="1" fill-rule="nonzero"/></g><path fill="rgb(21.958923%, 71.369934%, 100%)" d="M 414.621094 99.054688 C 398.648438 107.769531 384.3125 115.589844 371.847656 115.960938 C 367.652344 116.109375 363.667969 115.421875 359.902344 113.644531 C 350.082031 109.007812 343.5 97.367188 339.789062 78.0625 C 337.167969 64.417969 331.460938 55.929688 322.824219 52.839844 C 320.160156 51.882812 317.25 51.4375 314.183594 51.40625 C 292.550781 51.3125 262.855469 71.714844 251.949219 80.78125 C 250.9375 81.621094 249.683594 81.957031 248.472656 81.832031 C 247.226562 81.753906 246.019531 81.210938 245.164062 80.183594 C 244.003906 78.789062 243.847656 76.9375 244.5 75.375 C 243.769531 73.730469 244.011719 71.734375 245.300781 70.320312 C 245.832031 69.734375 246.398438 69.179688 246.941406 68.609375 C 249.621094 62.273438 252.425781 55.917969 254.457031 49.550781 C 255.886719 48.382812 257.332031 47.242188 258.773438 46.09375 C 258.769531 46.082031 258.757812 46.074219 258.753906 46.058594 C 256.539062 47.820312 254.339844 49.609375 252.15625 51.421875 C 228.933594 70.65625 212.660156 84.855469 226.359375 105.648438 C 232.175781 114.480469 243.378906 124.855469 254.21875 126.78125 C 259.921875 127.800781 265.566406 125.867188 271.53125 123.824219 C 276.558594 122.101562 281.753906 120.320312 287.503906 120.0625 C 297.3125 119.6875 304.304688 123.941406 306.898438 131.894531 C 315.230469 157.429688 284.609375 171.296875 265.585938 178.050781 C 239.675781 187.257812 209.316406 185.398438 195.671875 213.839844 C 190.023438 225.613281 186.816406 237.082031 185.679688 248.132812 C 187.3125 249.292969 188.125 251.367188 187.46875 253.371094 C 187.195312 254.222656 184.722656 262.601562 187.078125 275.386719 C 187.925781 279.460938 189.066406 283.453125 190.449219 287.363281 C 197.726562 306.550781 216.148438 331.480469 260.351562 355.8125 C 326.4375 392.1875 364.976562 429.289062 374.90625 466.082031 C 380.425781 486.539062 377.210938 506.941406 365.355469 526.722656 C 364.496094 528.152344 363 528.945312 361.449219 528.988281 C 362.898438 534.355469 364.015625 539.835938 365.246094 545.375 C 366.28125 550.039062 366.988281 554.9375 368.773438 559.382812 C 369.898438 562.199219 371.320312 564.800781 372.613281 567.46875 C 382.398438 556.121094 397.542969 532.425781 394.152344 496.925781 C 389.628906 449.550781 352.976562 398.042969 288.160156 347.976562 C 240.210938 310.9375 236.792969 279.769531 242.375 260.140625 C 254.441406 217.679688 320.484375 184.21875 410.636719 174.886719 C 464.792969 169.28125 479.210938 147.988281 482.984375 135.796875 C 487.257812 121.984375 482.015625 105.804688 469.941406 95.550781 C 462.773438 89.464844 454.40625 86.410156 445.992188 86.542969 C 440.988281 86.652344 435.96875 87.875 431.183594 90.273438 C 425.542969 93.09375 419.992188 96.121094 414.621094 99.054688 " fill-opacity="1" fill-rule="nonzero"/><path fill="rgb(32.159424%, 44.309998%, 100%)" d="M 428.433594 567.210938 C 437.878906 556.496094 442.289062 539.148438 440.84375 518.363281 C 437.46875 469.691406 404.59375 414.132812 352.910156 369.742188 C 312.039062 334.640625 295.292969 304.132812 303.125 279.054688 C 313.632812 245.421875 367.582031 223.335938 463.464844 213.410156 C 465.160156 213.214844 466.632812 213.996094 467.585938 215.226562 C 496.160156 205.433594 519.175781 185.445312 531.324219 168.085938 C 536.78125 160.277344 540.582031 152.023438 542.886719 143.589844 C 542.753906 143.546875 542.621094 143.566406 542.496094 143.511719 C 540.113281 142.488281 539.007812 139.726562 540.03125 137.34375 C 552.828125 107.460938 531.570312 81.40625 531.351562 81.144531 C 530.367188 79.960938 530.140625 78.449219 530.476562 77.054688 C 516.949219 57.984375 493.207031 42.457031 469.066406 47.515625 C 461.910156 49.011719 454.757812 50.828125 447.800781 53.238281 C 447.78125 54.941406 446.886719 56.585938 445.257812 57.398438 C 439.621094 60.21875 434.070312 63.25 428.699219 66.179688 C 412.328125 75.113281 397.679688 83.101562 385.003906 83.105469 C 381.210938 83.105469 377.59375 82.386719 374.15625 80.765625 C 364.332031 76.125 357.753906 64.488281 354.046875 45.183594 C 351.425781 31.539062 345.71875 23.054688 337.082031 19.953125 C 315.628906 12.257812 278.515625 37.527344 266.027344 47.90625 C 264.03125 49.566406 261.078125 49.292969 259.417969 47.296875 C 259.117188 46.933594 258.949219 46.515625 258.773438 46.097656 C 257.332031 47.246094 255.886719 48.382812 254.457031 49.554688 C 252.425781 55.917969 249.621094 62.273438 246.941406 68.609375 C 252.046875 63.21875 257.675781 58.308594 263.757812 54.054688 C 269.144531 50.289062 275.316406 46.78125 281.601562 43.910156 C 287.859375 41.054688 295.644531 37.496094 306.632812 35.992188 C 311.273438 35.359375 316.0625 34.703125 322.328125 35.648438 C 326.375 36.257812 338.65625 38.113281 346.621094 48.066406 C 349.84375 52.09375 351.046875 55.800781 353.046875 61.945312 C 354.226562 65.554688 354.679688 67.953125 355.25 70.988281 C 355.738281 73.558594 356.339844 76.757812 357.636719 81.816406 C 359.476562 88.996094 360.230469 90.25 360.632812 90.925781 C 362.925781 94.746094 365.609375 97.25 368.609375 98.382812 C 371.1875 99.363281 374.015625 99.332031 382.34375 96.5 C 392.894531 92.917969 401.226562 88.566406 408.855469 84.421875 C 413.644531 81.816406 417.09375 79.851562 419.757812 78.335938 C 426.09375 74.726562 428.464844 73.375 433.691406 72.085938 C 443.132812 69.75 451.238281 70.214844 456.375 71.019531 C 461.269531 71.78125 468.691406 73.367188 476.578125 78.296875 C 493.101562 88.625 498.511719 105.820312 500.070312 112.734375 C 503.320312 127.144531 500.003906 138.878906 498.429688 143.257812 C 495.070312 152.566406 489.945312 158.402344 487.191406 161.535156 C 477.078125 173.042969 465.582031 177.917969 457.976562 181.148438 C 448.902344 184.988281 441.808594 186.472656 434.292969 188.039062 C 426.726562 189.621094 421.964844 190.089844 415.375 190.738281 C 412.03125 191.070312 408.1875 191.445312 403.210938 192.050781 C 403.078125 192.066406 389.816406 193.683594 375.199219 196.375 C 359.320312 199.292969 342.921875 202.3125 323.207031 210.46875 C 304.847656 218.066406 292.933594 226.40625 285.816406 231.390625 C 278.53125 236.492188 270.898438 242.492188 264.453125 251.777344 C 260.90625 256.894531 258.640625 261.636719 257.726562 265.871094 C 256.117188 273.335938 257.578125 279.367188 258.546875 283.355469 C 259.550781 287.507812 261.722656 294.222656 268.953125 304.601562 C 274.25 312.203125 280.601562 319.535156 295.886719 332.601562 C 305.75 341.03125 313.183594 346.59375 318.609375 350.65625 L 322.289062 353.429688 C 357.613281 380.359375 377.410156 412.238281 388.046875 429.359375 C 400.445312 449.3125 404.480469 460.832031 406.613281 468.644531 C 411.382812 486.132812 411.117188 500.671875 411 506.882812 C 410.804688 517.394531 410.5625 530.476562 404.789062 545.917969 C 400.953125 556.183594 395.382812 565.652344 388.183594 574.199219 C 401.253906 573.023438 414.375 572.265625 427.46875 571.375 C 427.132812 569.941406 427.390625 568.394531 428.433594 567.210938 " fill-opacity="1" fill-rule="nonzero"/><path fill="rgb(0%, 29.019165%, 67.83905%)" d="M 379.226562 574.378906 C 389.988281 562.175781 407.46875 535.773438 403.675781 496.027344 C 398.828125 445.28125 361.953125 392.964844 294.066406 340.535156 C 259.40625 313.761719 244.710938 286.847656 251.574219 262.703125 C 262.414062 224.558594 326.792969 193.019531 411.773438 184.222656 C 471.300781 178.058594 487.664062 152.972656 492.121094 138.566406 C 497.582031 120.933594 491.324219 101.234375 476.1875 88.378906 C 461.75 76.109375 443.351562 73.679688 426.984375 81.871094 C 421.195312 84.769531 415.566406 87.835938 410.125 90.808594 C 391.898438 100.753906 374.679688 110.144531 364.082031 105.144531 C 357.160156 101.875 352.285156 92.433594 349.183594 76.285156 C 345.890625 59.144531 338.144531 48.277344 326.164062 43.984375 C 295.28125 32.925781 247.949219 71.894531 245.949219 73.558594 C 245.285156 74.109375 244.890625 74.824219 244.613281 75.582031 C 244.0625 77.097656 244.234375 78.839844 245.339844 80.171875 C 246.160156 81.15625 247.296875 81.714844 248.472656 81.832031 C 249.683594 81.957031 250.9375 81.625 251.949219 80.78125 C 262.855469 71.714844 292.550781 51.3125 314.183594 51.40625 C 317.320312 51.421875 320.289062 51.855469 323.003906 52.828125 C 331.640625 55.925781 337.347656 64.414062 339.96875 78.054688 C 343.675781 97.363281 350.253906 109 360.078125 113.640625 C 363.789062 115.390625 367.71875 116.085938 371.847656 115.960938 C 384.3125 115.59375 398.648438 107.769531 414.621094 99.054688 C 419.992188 96.125 425.542969 93.09375 431.183594 90.273438 C 435.96875 87.878906 440.988281 86.652344 445.992188 86.542969 C 454.464844 86.363281 462.898438 89.410156 470.117188 95.539062 C 482.191406 105.796875 487.433594 121.96875 483.160156 135.789062 C 479.386719 147.976562 464.96875 169.273438 410.808594 174.878906 C 320.660156 184.210938 254.613281 217.675781 242.546875 260.132812 C 236.96875 279.761719 240.382812 310.933594 288.335938 347.96875 C 353.152344 398.035156 389.808594 449.542969 394.332031 496.921875 C 397.789062 533.136719 381.945312 557.101562 372.1875 568.164062 C 370.476562 570.109375 370.660156 573.074219 372.605469 574.792969 C 373.019531 575.164062 373.496094 575.425781 373.984375 575.621094 C 374.539062 575.839844 375.121094 575.96875 375.707031 575.96875 C 377.003906 575.96875 378.300781 575.429688 379.226562 574.378906 " fill-opacity="1" fill-rule="nonzero"/><path fill="rgb(0%, 29.019165%, 67.83905%)" d="M 359.023438 362.613281 C 321.265625 330.183594 305.472656 303.015625 312.085938 281.855469 C 321.238281 252.558594 373.917969 232.121094 464.433594 222.75 C 467.011719 222.484375 468.886719 220.175781 468.617188 217.597656 C 468.523438 216.675781 468.109375 215.902344 467.585938 215.222656 C 466.636719 213.996094 465.160156 213.214844 463.464844 213.40625 C 367.582031 223.335938 313.632812 245.421875 303.125 279.050781 C 295.292969 304.132812 312.042969 334.640625 352.910156 369.738281 C 404.59375 414.132812 437.46875 469.691406 440.84375 518.363281 C 442.289062 539.148438 437.882812 556.496094 428.433594 567.207031 C 427.390625 568.394531 427.132812 569.941406 427.46875 571.375 C 427.683594 572.289062 428.089844 573.167969 428.847656 573.839844 C 429.742188 574.625 430.851562 575.011719 431.949219 575.011719 C 433.25 575.011719 434.546875 574.476562 435.472656 573.425781 C 446.59375 560.8125 451.828125 541.027344 450.207031 517.710938 C 450.175781 517.21875 450.089844 516.714844 450.054688 516.222656 C 445.957031 465.457031 412.058594 408.164062 359.023438 362.613281 " fill-opacity="1" fill-rule="nonzero"/><path fill="rgb(0%, 29.019165%, 67.83905%)" d="M 259.417969 47.296875 C 261.078125 49.289062 264.03125 49.566406 266.027344 47.910156 C 278.515625 37.523438 315.628906 12.261719 337.082031 19.957031 C 345.71875 23.050781 351.425781 31.535156 354.046875 45.183594 C 357.753906 64.484375 364.332031 76.125 374.15625 80.765625 C 377.59375 82.382812 381.210938 83.105469 385.003906 83.105469 C 397.679688 83.101562 412.332031 75.109375 428.699219 66.179688 C 434.070312 63.246094 439.621094 60.21875 445.257812 57.398438 C 446.886719 56.585938 447.78125 54.945312 447.800781 53.234375 C 447.808594 52.515625 447.703125 51.789062 447.355469 51.097656 C 446.199219 48.777344 443.390625 47.832031 441.0625 48.996094 C 435.273438 51.894531 429.644531 54.964844 424.203125 57.933594 C 405.976562 67.878906 388.765625 77.277344 378.160156 72.269531 C 371.238281 69 366.363281 59.558594 363.261719 43.410156 C 359.96875 26.269531 352.222656 15.402344 340.242188 11.109375 C 309.363281 0.0390625 262.027344 39.019531 260.027344 40.683594 C 258.410156 42.027344 257.992188 44.210938 258.753906 46.0625 C 258.757812 46.070312 258.769531 46.085938 258.773438 46.097656 C 258.949219 46.515625 259.117188 46.929688 259.417969 47.296875 " fill-opacity="1" fill-rule="nonzero"/><path fill="rgb(0%, 29.019165%, 67.83905%)" d="M 531.351562 81.144531 C 531.570312 81.40625 552.828125 107.460938 540.03125 137.34375 C 539.007812 139.726562 540.113281 142.488281 542.492188 143.507812 C 542.621094 143.5625 542.753906 143.546875 542.882812 143.589844 C 543.367188 143.753906 543.855469 143.894531 544.339844 143.894531 C 546.164062 143.894531 547.894531 142.824219 548.65625 141.046875 C 559.539062 115.632812 549.945312 93.199219 543.410156 82.230469 C 540.910156 78.042969 538.847656 75.476562 538.558594 75.132812 C 536.902344 73.140625 533.945312 72.867188 531.953125 74.53125 C 531.148438 75.203125 530.703125 76.109375 530.472656 77.054688 C 530.140625 78.449219 530.367188 79.960938 531.351562 81.144531 " fill-opacity="1" fill-rule="nonzero"/><path fill="rgb(0%, 29.019165%, 67.83905%)" d="M 475.371094 280.308594 C 472.800781 279.488281 411.941406 260.523438 377.742188 279.640625 C 366.867188 285.71875 359.816406 294.96875 356.777344 307.125 C 351.691406 327.484375 364.515625 341.484375 382.265625 360.859375 C 401.050781 381.367188 426.777344 409.449219 446.105469 460.226562 C 446.816406 462.101562 448.601562 463.253906 450.492188 463.253906 C 451.015625 463.253906 451.546875 463.144531 452.0625 462.960938 C 452.097656 462.949219 452.128906 462.953125 452.160156 462.945312 C 454.582031 462.019531 455.800781 459.304688 454.875 456.882812 C 434.910156 404.425781 408.480469 375.578125 389.179688 354.511719 C 372.242188 336.023438 362.023438 324.863281 365.882812 309.40625 C 368.300781 299.730469 373.671875 292.675781 382.308594 287.847656 C 412.953125 270.707031 471.945312 289.074219 472.539062 289.257812 C 475 290.039062 477.644531 288.675781 478.425781 286.203125 C 478.636719 285.539062 478.671875 284.871094 478.589844 284.222656 C 478.375 282.453125 477.179688 280.882812 475.371094 280.308594 " fill-opacity="1" fill-rule="nonzero"/><path fill="rgb(0%, 29.019165%, 67.83905%)" d="M 365.351562 526.722656 C 377.210938 506.941406 380.425781 486.539062 374.902344 466.082031 C 364.976562 429.289062 326.4375 392.1875 260.351562 355.816406 C 216.148438 331.484375 197.726562 306.550781 190.449219 287.367188 C 188.8125 283.054688 187.753906 279.046875 187.078125 275.390625 C 184.722656 262.605469 187.195312 254.222656 187.46875 253.371094 C 188.125 251.371094 187.3125 249.296875 185.679688 248.136719 C 185.3125 247.871094 184.945312 247.601562 184.492188 247.453125 C 182.03125 246.632812 179.375 247.96875 178.558594 250.425781 C 177.742188 252.878906 159.65625 311.105469 255.828125 364.042969 C 319.59375 399.144531 356.605469 434.296875 365.84375 468.53125 C 370.671875 486.429688 367.800781 504.382812 357.304688 521.886719 C 355.972656 524.113281 356.691406 527 358.914062 528.332031 C 359.671875 528.789062 360.5 529.003906 361.324219 529.003906 C 361.367188 529.003906 361.40625 528.988281 361.445312 528.988281 C 363 528.945312 364.496094 528.152344 365.351562 526.722656 " fill-opacity="1" fill-rule="nonzero"/></svg>