<?xml version="1.0" encoding="UTF-8"?><svg xmlns="http://www.w3.org/2000/svg" xmlns:xlink="http://www.w3.org/1999/xlink" width="768" zoomAndPan="magnify" viewBox="0 0 768 576" height="576" preserveAspectRatio="xMidYMid meet" version="1.0"><defs><clipPath id="clip-0"><path d="M 321.355469 82.175781 L 599.484375 82.175781 L 599.484375 516.367188 L 321.355469 516.367188 Z M 321.355469 82.175781 " clip-rule="nonzero"/></clipPath></defs><g clip-path="url(#clip-0)"><path fill="rgb(79.60968%, 42.349243%, 90.19928%)" d="M 554.242188 82.230469 C 560.777344 93.195312 570.371094 115.632812 559.492188 141.042969 C 558.730469 142.820312 556.996094 143.890625 555.175781 143.890625 C 554.691406 143.890625 554.203125 143.746094 553.71875 143.589844 C 551.417969 152.023438 547.617188 160.273438 542.160156 168.082031 C 530.011719 185.445312 506.996094 205.433594 478.421875 215.226562 C 478.945312 215.902344 479.355469 216.675781 479.453125 217.597656 C 479.722656 220.175781 477.847656 222.484375 475.269531 222.75 C 384.753906 232.121094 332.074219 252.558594 322.917969 281.855469 C 316.308594 303.015625 332.101562 330.183594 369.859375 362.613281 C 422.894531 408.164062 456.792969 465.460938 460.886719 516.222656 C 464.871094 497.054688 466.988281 476.828125 462.898438 462.960938 C 462.378906 463.148438 461.851562 463.253906 461.324219 463.253906 C 459.4375 463.253906 457.652344 462.101562 456.941406 460.226562 C 437.613281 409.449219 411.882812 381.367188 393.097656 360.859375 C 375.351562 341.484375 362.527344 327.484375 367.613281 307.125 C 370.652344 294.96875 377.703125 285.71875 388.578125 279.640625 C 422.777344 260.523438 483.632812 279.492188 486.207031 280.308594 C 488.015625 280.878906 489.210938 282.453125 489.425781 284.222656 C 498.128906 283.625 532.144531 279.164062 563.273438 245.574219 C 599.316406 206.6875 602.691406 151.457031 597.625 132.296875 C 593.710938 117.496094 566.472656 92.753906 554.242188 82.230469 " fill-opacity="1" fill-rule="nonzero"/></g><path fill="rgb(79.60968%, 42.349243%, 90.19928%)" d="M 425.457031 99.054688 C 409.480469 107.769531 395.148438 115.589844 382.683594 115.960938 C 378.488281 116.109375 374.503906 115.421875 370.738281 113.644531 C 360.917969 109.007812 354.335938 97.367188 350.625 78.0625 C 348 64.417969 342.296875 55.929688 333.65625 52.839844 C 330.992188 51.882812 328.085938 51.4375 325.015625 51.40625 C 303.382812 51.3125 273.691406 71.714844 262.785156 80.78125 C 261.773438 81.621094 260.519531 81.957031 259.308594 81.835938 C 258.0625 81.753906 256.855469 81.210938 256 80.183594 C 254.839844 78.789062 254.679688 76.9375 255.335938 75.375 C 254.605469 73.730469 254.847656 71.734375 256.136719 70.320312 C 256.667969 69.734375 257.234375 69.179688 257.777344 68.609375 C 260.457031 62.273438 263.261719 55.917969 265.292969 49.550781 C 266.722656 48.382812 268.167969 47.242188 269.609375 46.097656 C 269.601562 46.082031 269.59375 46.074219 269.585938 46.058594 C 267.375 47.820312 265.175781 49.609375 262.988281 51.421875 C 239.769531 70.65625 223.496094 84.859375 237.191406 105.648438 C 243.011719 114.480469 254.214844 124.855469 265.054688 126.78125 C 270.757812 127.800781 276.402344 125.867188 282.363281 123.824219 C 287.390625 122.101562 292.589844 120.320312 298.339844 120.0625 C 308.144531 119.6875 315.140625 123.941406 317.734375 131.894531 C 326.0625 157.429688 295.445312 171.296875 276.421875 178.054688 C 250.511719 187.257812 220.152344 185.398438 206.507812 213.839844 C 200.859375 225.613281 197.648438 237.082031 196.511719 248.132812 C 198.148438 249.292969 198.960938 251.367188 198.304688 253.371094 C 198.03125 254.222656 195.554688 262.601562 197.914062 275.386719 C 198.761719 279.460938 199.902344 283.453125 201.28125 287.363281 C 208.5625 306.550781 226.984375 331.480469 271.1875 355.8125 C 337.273438 392.1875 375.8125 429.289062 385.738281 466.082031 C 391.261719 486.539062 388.046875 506.941406 376.1875 526.722656 C 375.332031 528.152344 373.835938 528.945312 372.28125 528.988281 C 373.734375 534.355469 374.847656 539.835938 376.082031 545.375 C 377.117188 550.039062 377.824219 554.9375 379.609375 559.382812 C 380.734375 562.199219 382.152344 564.800781 383.449219 567.46875 C 393.234375 556.121094 408.378906 532.425781 404.988281 496.929688 C 400.464844 449.550781 363.8125 398.042969 298.996094 347.980469 C 251.046875 310.9375 247.628906 279.769531 253.210938 260.140625 C 265.277344 217.683594 331.320312 184.21875 421.472656 174.886719 C 475.628906 169.28125 490.046875 147.988281 493.816406 135.796875 C 498.09375 121.984375 492.851562 105.804688 480.777344 95.550781 C 473.609375 89.464844 465.242188 86.410156 456.828125 86.542969 C 451.824219 86.652344 446.804688 87.875 442.015625 90.273438 C 436.378906 93.09375 430.824219 96.121094 425.457031 99.054688 " fill-opacity="1" fill-rule="nonzero"/><path fill="rgb(54.899597%, 32.159424%, 100%)" d="M 439.269531 567.210938 C 448.714844 556.496094 453.121094 539.148438 451.679688 518.363281 C 448.304688 469.691406 415.429688 414.132812 363.746094 369.742188 C 322.875 334.640625 306.125 304.132812 313.960938 279.054688 C 324.46875 245.421875 378.414062 223.335938 474.300781 213.410156 C 475.992188 213.214844 477.46875 213.996094 478.421875 215.226562 C 506.992188 205.433594 530.011719 185.445312 542.160156 168.085938 C 547.617188 160.277344 551.414062 152.023438 553.722656 143.589844 C 553.589844 143.546875 553.457031 143.566406 553.332031 143.511719 C 550.949219 142.492188 549.84375 139.726562 550.867188 137.34375 C 563.660156 107.460938 542.402344 81.40625 542.1875 81.148438 C 541.203125 79.960938 540.976562 78.449219 541.3125 77.054688 C 527.785156 57.984375 504.039062 42.457031 479.898438 47.515625 C 472.746094 49.011719 465.59375 50.828125 458.636719 53.238281 C 458.617188 54.941406 457.722656 56.585938 456.09375 57.398438 C 450.457031 60.21875 444.902344 63.25 439.53125 66.179688 C 423.164062 75.113281 408.515625 83.101562 395.839844 83.105469 C 392.046875 83.105469 388.425781 82.386719 384.992188 80.765625 C 375.164062 76.125 368.585938 64.488281 364.878906 45.183594 C 362.257812 31.539062 356.550781 23.054688 347.917969 19.957031 C 326.464844 12.261719 289.351562 37.527344 276.863281 47.910156 C 274.867188 49.570312 271.910156 49.292969 270.253906 47.296875 C 269.949219 46.933594 269.78125 46.515625 269.605469 46.101562 C 268.164062 47.246094 266.722656 48.382812 265.292969 49.554688 C 263.261719 55.917969 260.457031 62.273438 257.777344 68.609375 C 262.882812 63.21875 268.507812 58.308594 274.589844 54.054688 C 279.980469 50.289062 286.148438 46.78125 292.4375 43.910156 C 298.691406 41.054688 306.480469 37.496094 317.46875 35.992188 C 322.109375 35.359375 326.898438 34.703125 333.160156 35.648438 C 337.207031 36.257812 349.492188 38.113281 357.457031 48.066406 C 360.675781 52.09375 361.882812 55.800781 363.882812 61.945312 C 365.058594 65.554688 365.511719 67.953125 366.085938 70.988281 C 366.570312 73.558594 367.175781 76.757812 368.472656 81.816406 C 370.3125 88.996094 371.066406 90.25 371.46875 90.925781 C 373.761719 94.746094 376.445312 97.25 379.445312 98.382812 C 382.023438 99.363281 384.851562 99.332031 393.179688 96.5 C 403.730469 92.917969 412.058594 88.566406 419.691406 84.421875 C 424.480469 81.816406 427.929688 79.851562 430.59375 78.335938 C 436.929688 74.726562 439.300781 73.375 444.523438 72.085938 C 453.964844 69.75 462.074219 70.214844 467.210938 71.019531 C 472.105469 71.78125 479.523438 73.367188 487.414062 78.296875 C 503.9375 88.625 509.347656 105.820312 510.90625 112.734375 C 514.152344 127.144531 510.839844 138.878906 509.265625 143.257812 C 505.90625 152.566406 500.777344 158.402344 498.027344 161.535156 C 487.910156 173.042969 476.417969 177.917969 468.808594 181.148438 C 459.738281 184.988281 452.640625 186.472656 445.128906 188.039062 C 437.558594 189.621094 432.796875 190.089844 426.210938 190.738281 C 422.867188 191.070312 419.023438 191.445312 414.046875 192.050781 C 413.914062 192.066406 400.652344 193.683594 386.035156 196.375 C 370.15625 199.292969 353.753906 202.3125 334.042969 210.46875 C 315.679688 218.066406 303.769531 226.40625 296.652344 231.390625 C 289.363281 236.492188 281.734375 242.492188 275.289062 251.777344 C 271.738281 256.894531 269.476562 261.636719 268.5625 265.875 C 266.953125 273.335938 268.414062 279.367188 269.378906 283.355469 C 270.382812 287.507812 272.554688 294.222656 279.789062 304.601562 C 285.085938 312.203125 291.4375 319.535156 306.722656 332.601562 C 316.585938 341.03125 324.015625 346.59375 329.441406 350.65625 L 333.125 353.429688 C 368.449219 380.363281 388.246094 412.238281 398.882812 429.359375 C 411.28125 449.3125 415.316406 460.835938 417.445312 468.644531 C 422.21875 486.132812 421.949219 500.671875 421.835938 506.882812 C 421.640625 517.394531 421.394531 530.476562 415.625 545.917969 C 411.789062 556.183594 406.214844 565.652344 399.019531 574.199219 C 412.089844 573.023438 425.207031 572.265625 438.304688 571.375 C 437.96875 569.941406 438.222656 568.394531 439.269531 567.210938 " fill-opacity="1" fill-rule="nonzero"/><path fill="rgb(36.859131%, 9.01947%, 92.158508%)" d="M 390.0625 574.378906 C 400.820312 562.175781 418.304688 535.773438 414.511719 496.027344 C 409.664062 445.28125 372.789062 392.964844 304.902344 340.535156 C 270.242188 313.761719 255.546875 286.847656 262.40625 262.703125 C 273.25 224.558594 337.628906 193.019531 422.609375 184.222656 C 482.132812 178.058594 498.5 152.972656 502.957031 138.566406 C 508.414062 120.933594 502.160156 101.234375 487.023438 88.378906 C 472.582031 76.109375 454.1875 73.679688 437.820312 81.871094 C 432.03125 84.769531 426.402344 87.835938 420.960938 90.808594 C 402.734375 100.753906 385.515625 110.144531 374.917969 105.144531 C 367.996094 101.875 363.121094 92.433594 360.019531 76.285156 C 356.726562 59.144531 348.980469 48.277344 336.996094 43.984375 C 306.117188 32.925781 258.78125 71.894531 256.785156 73.558594 C 256.121094 74.109375 255.722656 74.824219 255.449219 75.582031 C 254.898438 77.097656 255.070312 78.839844 256.175781 80.171875 C 256.996094 81.15625 258.128906 81.714844 259.308594 81.835938 C 260.519531 81.957031 261.773438 81.625 262.785156 80.78125 C 273.691406 71.714844 303.382812 51.3125 325.015625 51.40625 C 328.152344 51.421875 331.125 51.855469 333.839844 52.828125 C 342.472656 55.925781 348.183594 64.414062 350.804688 78.054688 C 354.511719 97.363281 361.089844 109 370.914062 113.640625 C 374.625 115.390625 378.554688 116.085938 382.683594 115.960938 C 395.148438 115.59375 409.480469 107.769531 425.457031 99.054688 C 430.824219 96.125 436.378906 93.09375 442.015625 90.273438 C 446.804688 87.878906 451.824219 86.652344 456.828125 86.542969 C 465.300781 86.363281 473.734375 89.410156 480.949219 95.539062 C 493.027344 105.796875 498.269531 121.96875 493.996094 135.789062 C 490.21875 147.976562 475.800781 169.273438 421.640625 174.878906 C 331.492188 184.210938 265.449219 217.675781 253.382812 260.132812 C 247.800781 279.761719 251.21875 310.933594 299.171875 347.96875 C 363.988281 398.035156 400.644531 449.542969 405.167969 496.921875 C 408.621094 533.136719 392.777344 557.101562 383.023438 568.164062 C 381.308594 570.109375 381.496094 573.074219 383.4375 574.792969 C 383.855469 575.164062 384.328125 575.425781 384.820312 575.621094 C 385.375 575.839844 385.957031 575.96875 386.539062 575.96875 C 387.839844 575.96875 389.132812 575.433594 390.0625 574.378906 " fill-opacity="1" fill-rule="nonzero"/><path fill="rgb(36.859131%, 9.01947%, 92.158508%)" d="M 369.859375 362.613281 C 332.101562 330.183594 316.308594 303.015625 322.917969 281.855469 C 332.074219 252.558594 384.753906 232.121094 475.269531 222.75 C 477.847656 222.484375 479.71875 220.175781 479.453125 217.597656 C 479.359375 216.675781 478.945312 215.902344 478.421875 215.222656 C 477.46875 213.996094 475.996094 213.214844 474.300781 213.40625 C 378.414062 223.335938 324.46875 245.421875 313.960938 279.050781 C 306.125 304.132812 322.875 334.640625 363.746094 369.742188 C 415.429688 414.132812 448.304688 469.691406 451.679688 518.363281 C 453.125 539.148438 448.714844 556.496094 439.269531 567.207031 C 438.222656 568.394531 437.96875 569.941406 438.304688 571.375 C 438.519531 572.289062 438.925781 573.167969 439.683594 573.839844 C 440.574219 574.625 441.683594 575.011719 442.785156 575.011719 C 444.085938 575.011719 445.378906 574.476562 446.308594 573.425781 C 457.429688 560.8125 462.664062 541.027344 461.042969 517.710938 C 461.011719 517.21875 460.925781 516.714844 460.886719 516.222656 C 456.792969 465.460938 422.894531 408.164062 369.859375 362.613281 " fill-opacity="1" fill-rule="nonzero"/><path fill="rgb(36.859131%, 9.01947%, 92.158508%)" d="M 270.253906 47.296875 C 271.910156 49.289062 274.867188 49.566406 276.863281 47.910156 C 289.351562 37.523438 326.464844 12.261719 347.917969 19.957031 C 356.550781 23.050781 362.257812 31.535156 364.878906 45.183594 C 368.585938 64.484375 375.167969 76.125 384.992188 80.765625 C 388.425781 82.382812 392.046875 83.105469 395.839844 83.105469 C 408.515625 83.101562 423.164062 75.109375 439.53125 66.179688 C 444.902344 63.246094 450.457031 60.21875 456.09375 57.398438 C 457.722656 56.585938 458.617188 54.945312 458.636719 53.238281 C 458.644531 52.515625 458.539062 51.789062 458.191406 51.097656 C 457.035156 48.777344 454.222656 47.832031 451.894531 48.996094 C 446.109375 51.894531 440.480469 54.964844 435.039062 57.933594 C 416.8125 67.878906 399.597656 77.277344 388.996094 72.269531 C 382.074219 69 377.199219 59.558594 374.097656 43.410156 C 370.804688 26.269531 363.058594 15.402344 351.074219 11.109375 C 320.199219 0.0390625 272.863281 39.019531 270.863281 40.683594 C 269.246094 42.027344 268.828125 44.210938 269.585938 46.0625 C 269.59375 46.074219 269.601562 46.085938 269.609375 46.097656 C 269.78125 46.515625 269.949219 46.929688 270.253906 47.296875 " fill-opacity="1" fill-rule="nonzero"/><path fill="rgb(36.859131%, 9.01947%, 92.158508%)" d="M 542.1875 81.144531 C 542.402344 81.40625 563.660156 107.460938 550.867188 137.34375 C 549.84375 139.726562 550.945312 142.488281 553.328125 143.507812 C 553.457031 143.5625 553.589844 143.546875 553.71875 143.589844 C 554.199219 143.753906 554.691406 143.894531 555.175781 143.894531 C 556.996094 143.894531 558.726562 142.824219 559.488281 141.046875 C 570.371094 115.632812 560.777344 93.199219 554.242188 82.230469 C 551.746094 78.042969 549.683594 75.476562 549.394531 75.132812 C 547.738281 73.140625 544.777344 72.867188 542.785156 74.53125 C 541.980469 75.203125 541.539062 76.109375 541.308594 77.054688 C 540.976562 78.449219 541.203125 79.960938 542.1875 81.144531 " fill-opacity="1" fill-rule="nonzero"/><path fill="rgb(36.859131%, 9.01947%, 92.158508%)" d="M 486.207031 280.308594 C 483.632812 279.488281 422.777344 260.523438 388.578125 279.640625 C 377.703125 285.71875 370.652344 294.96875 367.613281 307.125 C 362.527344 327.484375 375.351562 341.484375 393.097656 360.859375 C 411.882812 381.367188 437.613281 409.449219 456.941406 460.226562 C 457.652344 462.101562 459.433594 463.253906 461.328125 463.253906 C 461.851562 463.253906 462.378906 463.144531 462.898438 462.960938 C 462.929688 462.949219 462.964844 462.957031 462.996094 462.945312 C 465.417969 462.019531 466.632812 459.308594 465.710938 456.882812 C 445.746094 404.425781 419.3125 375.578125 400.015625 354.511719 C 383.078125 336.023438 372.855469 324.863281 376.71875 309.40625 C 379.136719 299.730469 384.507812 292.675781 393.144531 287.847656 C 423.789062 270.707031 482.78125 289.074219 483.375 289.257812 C 485.835938 290.039062 488.480469 288.675781 489.261719 286.203125 C 489.472656 285.539062 489.503906 284.871094 489.425781 284.222656 C 489.210938 282.453125 488.015625 280.882812 486.207031 280.308594 " fill-opacity="1" fill-rule="nonzero"/><path fill="rgb(36.859131%, 9.01947%, 92.158508%)" d="M 376.1875 526.722656 C 388.046875 506.941406 391.261719 486.539062 385.738281 466.082031 C 375.8125 429.289062 337.273438 392.191406 271.1875 355.816406 C 226.984375 331.484375 208.5625 306.550781 201.28125 287.367188 C 199.648438 283.054688 198.585938 279.046875 197.914062 275.390625 C 195.554688 262.605469 198.03125 254.226562 198.304688 253.371094 C 198.960938 251.371094 198.148438 249.296875 196.511719 248.136719 C 196.144531 247.871094 195.777344 247.605469 195.328125 247.453125 C 192.867188 246.632812 190.210938 247.96875 189.390625 250.425781 C 188.574219 252.878906 170.492188 311.105469 266.664062 364.042969 C 330.425781 399.144531 367.441406 434.296875 376.679688 468.53125 C 381.507812 486.429688 378.632812 504.382812 368.140625 521.890625 C 366.808594 524.113281 367.527344 527 369.75 528.332031 C 370.503906 528.789062 371.335938 529.003906 372.160156 529.003906 C 372.199219 529.003906 372.242188 528.988281 372.28125 528.988281 C 373.832031 528.945312 375.332031 528.152344 376.1875 526.722656 " fill-opacity="1" fill-rule="nonzero"/></svg>