<?xml version="1.0" encoding="UTF-8"?><svg xmlns="http://www.w3.org/2000/svg" xmlns:xlink="http://www.w3.org/1999/xlink" width="768" zoomAndPan="magnify" viewBox="0 0 768 576" height="576" preserveAspectRatio="xMidYMid meet" version="1.0"><defs><clipPath id="clip-0"><path d="M 320.183594 82.175781 L 598.3125 82.175781 L 598.3125 516.367188 L 320.183594 516.367188 Z M 320.183594 82.175781 " clip-rule="nonzero"/></clipPath></defs><g clip-path="url(#clip-0)"><path fill="rgb(96.078491%, 85.879517%, 91.758728%)" d="M 553.070312 82.230469 C 559.605469 93.195312 569.199219 115.632812 558.320312 141.042969 C 557.558594 142.820312 555.824219 143.890625 554.003906 143.890625 C 553.519531 143.890625 553.03125 143.746094 552.546875 143.589844 C 550.246094 152.023438 546.445312 160.273438 540.988281 168.082031 C 528.839844 185.445312 505.824219 205.433594 477.25 215.226562 C 477.773438 215.902344 478.183594 216.675781 478.28125 217.597656 C 478.550781 220.175781 476.675781 222.484375 474.097656 222.75 C 383.582031 232.121094 330.902344 252.558594 321.75 281.855469 C 315.136719 303.015625 330.929688 330.183594 368.6875 362.613281 C 421.722656 408.164062 455.621094 465.457031 459.714844 516.222656 C 463.699219 497.054688 465.816406 476.828125 461.726562 462.960938 C 461.207031 463.148438 460.679688 463.253906 460.152344 463.253906 C 458.265625 463.253906 456.480469 462.101562 455.769531 460.226562 C 436.441406 409.449219 410.714844 381.363281 391.925781 360.859375 C 374.179688 341.484375 361.355469 327.484375 366.441406 307.125 C 369.480469 294.96875 376.53125 285.71875 387.40625 279.640625 C 421.605469 260.523438 482.464844 279.492188 485.035156 280.308594 C 486.84375 280.878906 488.039062 282.453125 488.253906 284.222656 C 496.960938 283.625 530.972656 279.164062 562.101562 245.574219 C 598.144531 206.6875 601.519531 151.457031 596.453125 132.296875 C 592.539062 117.496094 565.300781 92.753906 553.070312 82.230469 " fill-opacity="1" fill-rule="nonzero"/></g><path fill="rgb(96.078491%, 85.879517%, 91.758728%)" d="M 424.285156 99.054688 C 408.308594 107.769531 393.976562 115.589844 381.511719 115.960938 C 377.316406 116.109375 373.332031 115.421875 369.566406 113.644531 C 359.746094 109.007812 353.164062 97.367188 349.453125 78.0625 C 346.832031 64.417969 341.125 55.929688 332.488281 52.839844 C 329.820312 51.882812 326.914062 51.4375 323.84375 51.40625 C 302.210938 51.3125 272.519531 71.714844 261.613281 80.78125 C 260.601562 81.621094 259.347656 81.957031 258.136719 81.832031 C 256.890625 81.753906 255.683594 81.210938 254.828125 80.183594 C 253.667969 78.789062 253.507812 76.9375 254.164062 75.375 C 253.433594 73.730469 253.675781 71.734375 254.964844 70.320312 C 255.496094 69.734375 256.0625 69.179688 256.605469 68.609375 C 259.285156 62.273438 262.089844 55.917969 264.121094 49.550781 C 265.550781 48.382812 266.996094 47.242188 268.4375 46.09375 C 268.429688 46.082031 268.421875 46.074219 268.417969 46.058594 C 266.203125 47.820312 264.003906 49.609375 261.816406 51.421875 C 238.597656 70.65625 222.324219 84.855469 236.019531 105.648438 C 241.839844 114.480469 253.042969 124.855469 263.882812 126.78125 C 269.585938 127.800781 275.230469 125.867188 281.191406 123.824219 C 286.21875 122.101562 291.417969 120.320312 297.167969 120.0625 C 306.976562 119.6875 313.96875 123.941406 316.5625 131.894531 C 324.890625 157.429688 294.273438 171.296875 275.25 178.050781 C 249.339844 187.257812 218.980469 185.398438 205.335938 213.839844 C 199.6875 225.613281 196.476562 237.082031 195.34375 248.132812 C 196.976562 249.292969 197.789062 251.367188 197.132812 253.371094 C 196.859375 254.222656 194.386719 262.601562 196.742188 275.386719 C 197.589844 279.460938 198.730469 283.453125 200.109375 287.363281 C 207.390625 306.550781 225.8125 331.480469 270.015625 355.8125 C 336.101562 392.1875 374.640625 429.289062 384.566406 466.082031 C 390.089844 486.539062 386.875 506.941406 375.015625 526.722656 C 374.160156 528.152344 372.664062 528.945312 371.109375 528.988281 C 372.5625 534.355469 373.675781 539.835938 374.910156 545.375 C 375.945312 550.039062 376.652344 554.9375 378.4375 559.382812 C 379.5625 562.199219 380.980469 564.800781 382.277344 567.46875 C 392.0625 556.121094 407.207031 532.425781 403.816406 496.925781 C 399.292969 449.550781 362.640625 398.042969 297.824219 347.976562 C 249.875 310.9375 246.457031 279.769531 252.039062 260.140625 C 264.105469 217.679688 330.148438 184.21875 420.300781 174.886719 C 474.457031 169.28125 488.875 147.988281 492.644531 135.796875 C 496.921875 121.984375 491.679688 105.804688 479.605469 95.550781 C 472.4375 89.464844 464.070312 86.410156 455.65625 86.542969 C 450.652344 86.652344 445.632812 87.875 440.84375 90.273438 C 435.207031 93.09375 429.652344 96.121094 424.285156 99.054688 " fill-opacity="1" fill-rule="nonzero"/><path fill="rgb(95.689392%, 66.268921%, 80.778503%)" d="M 438.097656 567.210938 C 447.542969 556.496094 451.949219 539.148438 450.507812 518.363281 C 447.132812 469.691406 414.257812 414.132812 362.574219 369.742188 C 321.703125 334.640625 304.953125 304.132812 312.789062 279.054688 C 323.296875 245.421875 377.242188 223.335938 473.128906 213.410156 C 474.820312 213.214844 476.296875 213.996094 477.25 215.226562 C 505.820312 205.433594 528.839844 185.445312 540.988281 168.085938 C 546.445312 160.277344 550.242188 152.023438 552.550781 143.589844 C 552.417969 143.546875 552.285156 143.566406 552.160156 143.511719 C 549.777344 142.488281 548.671875 139.726562 549.695312 137.34375 C 562.492188 107.460938 541.230469 81.40625 541.015625 81.144531 C 540.03125 79.960938 539.804688 78.449219 540.140625 77.054688 C 526.613281 57.984375 502.867188 42.457031 478.726562 47.515625 C 471.574219 49.011719 464.421875 50.828125 457.464844 53.238281 C 457.445312 54.941406 456.550781 56.585938 454.921875 57.398438 C 449.285156 60.21875 443.730469 63.25 438.359375 66.179688 C 421.992188 75.113281 407.34375 83.101562 394.667969 83.105469 C 390.875 83.105469 387.253906 82.386719 383.820312 80.765625 C 373.992188 76.125 367.417969 64.488281 363.707031 45.183594 C 361.085938 31.539062 355.378906 23.054688 346.746094 19.953125 C 325.292969 12.257812 288.179688 37.527344 275.691406 47.90625 C 273.695312 49.566406 270.742188 49.292969 269.082031 47.296875 C 268.777344 46.933594 268.609375 46.515625 268.4375 46.097656 C 266.992188 47.246094 265.550781 48.382812 264.121094 49.554688 C 262.089844 55.917969 259.285156 62.273438 256.605469 68.609375 C 261.710938 63.21875 267.335938 58.308594 273.417969 54.054688 C 278.808594 50.289062 284.980469 46.78125 291.265625 43.910156 C 297.519531 41.054688 305.308594 37.496094 316.296875 35.992188 C 320.9375 35.359375 325.726562 34.703125 331.992188 35.648438 C 336.035156 36.257812 348.320312 38.113281 356.285156 48.066406 C 359.507812 52.09375 360.710938 55.800781 362.710938 61.945312 C 363.886719 65.554688 364.339844 67.953125 364.914062 70.988281 C 365.398438 73.558594 366.003906 76.757812 367.300781 81.816406 C 369.140625 88.996094 369.894531 90.25 370.296875 90.925781 C 372.589844 94.746094 375.273438 97.25 378.273438 98.382812 C 380.851562 99.363281 383.679688 99.332031 392.007812 96.5 C 402.558594 92.917969 410.890625 88.566406 418.519531 84.421875 C 423.308594 81.816406 426.757812 79.851562 429.421875 78.335938 C 435.757812 74.726562 438.128906 73.375 443.351562 72.085938 C 452.796875 69.75 460.902344 70.214844 466.039062 71.019531 C 470.933594 71.78125 478.351562 73.367188 486.242188 78.296875 C 502.765625 88.625 508.175781 105.820312 509.734375 112.734375 C 512.980469 127.144531 509.667969 138.878906 508.09375 143.257812 C 504.734375 152.566406 499.609375 158.402344 496.855469 161.535156 C 486.738281 173.042969 475.246094 177.917969 467.640625 181.148438 C 458.566406 184.988281 451.46875 186.472656 443.957031 188.039062 C 436.386719 189.621094 431.625 190.089844 425.039062 190.738281 C 421.695312 191.070312 417.851562 191.445312 412.875 192.050781 C 412.742188 192.066406 399.480469 193.683594 384.863281 196.375 C 368.984375 199.292969 352.582031 202.3125 332.871094 210.46875 C 314.507812 218.066406 302.597656 226.40625 295.480469 231.390625 C 288.195312 236.492188 280.5625 242.492188 274.117188 251.777344 C 270.570312 256.894531 268.304688 261.636719 267.390625 265.871094 C 265.78125 273.335938 267.242188 279.367188 268.207031 283.355469 C 269.210938 287.507812 271.382812 294.222656 278.617188 304.601562 C 283.914062 312.203125 290.265625 319.535156 305.550781 332.601562 C 315.414062 341.03125 322.84375 346.59375 328.273438 350.65625 L 331.953125 353.429688 C 367.277344 380.359375 387.074219 412.238281 397.710938 429.359375 C 410.109375 449.3125 414.144531 460.832031 416.277344 468.644531 C 421.046875 486.132812 420.78125 500.671875 420.664062 506.882812 C 420.46875 517.394531 420.222656 530.476562 414.453125 545.917969 C 410.617188 556.183594 405.042969 565.652344 397.847656 574.199219 C 410.917969 573.023438 424.035156 572.265625 437.132812 571.375 C 436.796875 569.941406 437.050781 568.394531 438.097656 567.210938 " fill-opacity="1" fill-rule="nonzero"/><path fill="rgb(100%, 39.99939%, 76.858521%)" d="M 388.890625 574.378906 C 399.648438 562.175781 417.132812 535.773438 413.339844 496.027344 C 408.492188 445.28125 371.617188 392.964844 303.730469 340.535156 C 269.070312 313.761719 254.375 286.847656 261.234375 262.703125 C 272.078125 224.558594 336.457031 193.019531 421.4375 184.222656 C 480.960938 178.058594 497.328125 152.972656 501.785156 138.566406 C 507.242188 120.933594 500.988281 101.234375 485.851562 88.378906 C 471.410156 76.109375 453.015625 73.679688 436.648438 81.871094 C 430.859375 84.769531 425.230469 87.835938 419.789062 90.808594 C 401.5625 100.753906 384.34375 110.144531 373.746094 105.144531 C 366.824219 101.875 361.949219 92.433594 358.847656 76.285156 C 355.554688 59.144531 347.808594 48.277344 335.824219 43.984375 C 304.945312 32.925781 257.613281 71.894531 255.613281 73.558594 C 254.949219 74.109375 254.550781 74.824219 254.277344 75.582031 C 253.726562 77.097656 253.898438 78.839844 255.003906 80.171875 C 255.824219 81.15625 256.957031 81.714844 258.136719 81.832031 C 259.347656 81.957031 260.601562 81.625 261.613281 80.78125 C 272.519531 71.714844 302.210938 51.3125 323.84375 51.40625 C 326.980469 51.421875 329.953125 51.855469 332.667969 52.828125 C 341.300781 55.925781 347.011719 64.414062 349.632812 78.054688 C 353.339844 97.363281 359.917969 109 369.742188 113.640625 C 373.453125 115.390625 377.382812 116.085938 381.511719 115.960938 C 393.976562 115.59375 408.308594 107.769531 424.285156 99.054688 C 429.652344 96.125 435.207031 93.09375 440.84375 90.273438 C 445.632812 87.878906 450.652344 86.652344 455.65625 86.542969 C 464.128906 86.363281 472.5625 89.410156 479.777344 95.539062 C 491.855469 105.796875 497.097656 121.96875 492.824219 135.789062 C 489.046875 147.976562 474.628906 169.273438 420.472656 174.878906 C 330.320312 184.210938 264.277344 217.675781 252.210938 260.132812 C 246.632812 279.761719 250.046875 310.933594 298 347.96875 C 362.816406 398.035156 399.472656 449.542969 403.996094 496.921875 C 407.449219 533.136719 391.605469 557.101562 381.851562 568.164062 C 380.136719 570.109375 380.324219 573.074219 382.265625 574.792969 C 382.683594 575.164062 383.15625 575.425781 383.648438 575.621094 C 384.203125 575.839844 384.785156 575.96875 385.371094 575.96875 C 386.667969 575.96875 387.960938 575.429688 388.890625 574.378906 " fill-opacity="1" fill-rule="nonzero"/><path fill="rgb(100%, 39.99939%, 76.858521%)" d="M 368.6875 362.613281 C 330.929688 330.183594 315.136719 303.015625 321.75 281.855469 C 330.902344 252.558594 383.582031 232.121094 474.097656 222.75 C 476.675781 222.484375 478.550781 220.175781 478.28125 217.597656 C 478.1875 216.675781 477.773438 215.902344 477.25 215.222656 C 476.296875 213.996094 474.824219 213.214844 473.128906 213.40625 C 377.246094 223.335938 323.296875 245.421875 312.789062 279.050781 C 304.953125 304.132812 321.703125 334.640625 362.574219 369.738281 C 414.257812 414.132812 447.132812 469.691406 450.507812 518.363281 C 451.953125 539.148438 447.542969 556.496094 438.097656 567.207031 C 437.054688 568.394531 436.796875 569.941406 437.132812 571.375 C 437.347656 572.289062 437.753906 573.167969 438.511719 573.839844 C 439.402344 574.625 440.511719 575.011719 441.613281 575.011719 C 442.914062 575.011719 444.210938 574.476562 445.136719 573.425781 C 456.257812 560.8125 461.492188 541.027344 459.871094 517.710938 C 459.839844 517.21875 459.753906 516.714844 459.714844 516.222656 C 455.621094 465.457031 421.722656 408.164062 368.6875 362.613281 " fill-opacity="1" fill-rule="nonzero"/><path fill="rgb(100%, 39.99939%, 76.858521%)" d="M 269.082031 47.296875 C 270.742188 49.289062 273.695312 49.566406 275.691406 47.910156 C 288.179688 37.523438 325.292969 12.261719 346.746094 19.957031 C 355.378906 23.050781 361.085938 31.535156 363.707031 45.183594 C 367.417969 64.484375 373.996094 76.125 383.820312 80.765625 C 387.253906 82.382812 390.875 83.105469 394.667969 83.105469 C 407.34375 83.101562 421.992188 75.109375 438.363281 66.179688 C 443.730469 63.246094 449.285156 60.21875 454.921875 57.398438 C 456.550781 56.585938 457.445312 54.945312 457.464844 53.234375 C 457.472656 52.515625 457.367188 51.789062 457.019531 51.097656 C 455.863281 48.777344 453.054688 47.832031 450.722656 48.996094 C 444.9375 51.894531 439.308594 54.964844 433.867188 57.933594 C 415.640625 67.878906 398.425781 77.277344 387.824219 72.269531 C 380.902344 69 376.027344 59.558594 372.925781 43.410156 C 369.632812 26.269531 361.886719 15.402344 349.902344 11.109375 C 319.027344 0.0390625 271.691406 39.019531 269.691406 40.683594 C 268.074219 42.027344 267.65625 44.210938 268.417969 46.0625 C 268.421875 46.070312 268.429688 46.085938 268.4375 46.097656 C 268.609375 46.515625 268.777344 46.929688 269.082031 47.296875 " fill-opacity="1" fill-rule="nonzero"/><path fill="rgb(100%, 39.99939%, 76.858521%)" d="M 541.015625 81.144531 C 541.234375 81.40625 562.492188 107.460938 549.695312 137.34375 C 548.671875 139.726562 549.773438 142.488281 552.15625 143.507812 C 552.285156 143.5625 552.417969 143.546875 552.546875 143.589844 C 553.027344 143.753906 553.519531 143.894531 554.003906 143.894531 C 555.824219 143.894531 557.554688 142.824219 558.316406 141.046875 C 569.199219 115.632812 559.605469 93.199219 553.070312 82.230469 C 550.574219 78.042969 548.511719 75.476562 548.222656 75.132812 C 546.566406 73.140625 543.605469 72.867188 541.613281 74.53125 C 540.808594 75.203125 540.367188 76.109375 540.136719 77.054688 C 539.804688 78.449219 540.03125 79.960938 541.015625 81.144531 " fill-opacity="1" fill-rule="nonzero"/><path fill="rgb(100%, 39.99939%, 76.858521%)" d="M 485.035156 280.308594 C 482.464844 279.488281 421.605469 260.523438 387.40625 279.640625 C 376.53125 285.71875 369.480469 294.96875 366.441406 307.125 C 361.355469 327.484375 374.179688 341.484375 391.925781 360.859375 C 410.714844 381.367188 436.441406 409.449219 455.769531 460.226562 C 456.480469 462.101562 458.261719 463.253906 460.15625 463.253906 C 460.679688 463.253906 461.207031 463.144531 461.726562 462.960938 C 461.757812 462.949219 461.792969 462.953125 461.824219 462.945312 C 464.246094 462.019531 465.460938 459.304688 464.539062 456.882812 C 444.574219 404.425781 418.140625 375.578125 398.84375 354.511719 C 381.90625 336.023438 371.683594 324.863281 375.546875 309.40625 C 377.964844 299.730469 383.335938 292.675781 391.972656 287.847656 C 422.617188 270.707031 481.609375 289.074219 482.203125 289.257812 C 484.664062 290.039062 487.308594 288.675781 488.089844 286.203125 C 488.300781 285.539062 488.332031 284.871094 488.253906 284.222656 C 488.039062 282.453125 486.84375 280.882812 485.035156 280.308594 " fill-opacity="1" fill-rule="nonzero"/><path fill="rgb(100%, 39.99939%, 76.858521%)" d="M 375.015625 526.722656 C 386.875 506.941406 390.089844 486.539062 384.566406 466.082031 C 374.640625 429.289062 336.101562 392.1875 270.015625 355.816406 C 225.8125 331.484375 207.390625 306.550781 200.109375 287.367188 C 198.476562 283.054688 197.414062 279.046875 196.742188 275.390625 C 194.386719 262.605469 196.859375 254.222656 197.132812 253.371094 C 197.789062 251.371094 196.976562 249.296875 195.34375 248.136719 C 194.972656 247.871094 194.605469 247.601562 194.15625 247.453125 C 191.695312 246.632812 189.039062 247.96875 188.21875 250.425781 C 187.40625 252.878906 169.320312 311.105469 265.492188 364.042969 C 329.253906 399.144531 366.269531 434.296875 375.507812 468.53125 C 380.335938 486.429688 377.460938 504.382812 366.96875 521.886719 C 365.636719 524.113281 366.355469 527 368.578125 528.332031 C 369.332031 528.789062 370.164062 529.003906 370.988281 529.003906 C 371.027344 529.003906 371.070312 528.988281 371.109375 528.988281 C 372.660156 528.945312 374.160156 528.152344 375.015625 526.722656 " fill-opacity="1" fill-rule="nonzero"/></svg>