<?xml version="1.0" encoding="UTF-8"?><svg xmlns="http://www.w3.org/2000/svg" xmlns:xlink="http://www.w3.org/1999/xlink" width="768" zoomAndPan="magnify" viewBox="0 0 768 576" height="576" preserveAspectRatio="xMidYMid meet" version="1.0"><defs><clipPath id="clip-0"><path d="M 317.539062 82.175781 L 595.667969 82.175781 L 595.667969 516.367188 L 317.539062 516.367188 Z M 317.539062 82.175781 " clip-rule="nonzero"/></clipPath></defs><g clip-path="url(#clip-0)"><path fill="rgb(49.409485%, 82.348633%, 96.078491%)" d="M 550.425781 82.230469 C 556.960938 93.195312 566.554688 115.632812 555.671875 141.042969 C 554.910156 142.820312 553.179688 143.890625 551.355469 143.890625 C 550.871094 143.890625 550.382812 143.746094 549.902344 143.589844 C 547.597656 152.023438 543.800781 160.273438 538.339844 168.082031 C 526.195312 185.445312 503.175781 205.433594 474.605469 215.226562 C 475.128906 215.902344 475.539062 216.675781 475.632812 217.597656 C 475.902344 220.175781 474.027344 222.484375 471.449219 222.75 C 380.9375 232.121094 328.257812 252.558594 319.101562 281.855469 C 312.492188 303.015625 328.28125 330.183594 366.039062 362.613281 C 419.074219 408.164062 452.976562 465.457031 457.070312 516.222656 C 461.054688 497.054688 463.171875 476.828125 459.082031 462.960938 C 458.5625 463.148438 458.03125 463.253906 457.507812 463.253906 C 455.617188 463.253906 453.835938 462.101562 453.121094 460.226562 C 433.792969 409.449219 408.066406 381.363281 389.28125 360.859375 C 371.53125 341.484375 358.710938 327.484375 363.792969 307.125 C 366.832031 294.96875 373.886719 285.71875 384.761719 279.640625 C 418.957031 260.523438 479.816406 279.492188 482.390625 280.308594 C 484.195312 280.878906 485.390625 282.453125 485.605469 284.222656 C 494.3125 283.625 528.324219 279.164062 559.457031 245.574219 C 595.496094 206.6875 598.875 151.457031 593.804688 132.296875 C 589.890625 117.496094 562.652344 92.753906 550.425781 82.230469 " fill-opacity="1" fill-rule="nonzero"/></g><path fill="rgb(49.409485%, 82.348633%, 96.078491%)" d="M 421.636719 99.054688 C 405.664062 107.769531 391.328125 115.589844 378.863281 115.960938 C 374.671875 116.109375 370.683594 115.421875 366.917969 113.644531 C 357.097656 109.007812 350.515625 97.367188 346.804688 78.0625 C 344.183594 64.417969 338.476562 55.929688 329.839844 52.839844 C 327.175781 51.882812 324.269531 51.4375 321.199219 51.40625 C 299.566406 51.3125 269.875 71.714844 258.964844 80.78125 C 257.953125 81.621094 256.699219 81.957031 255.492188 81.832031 C 254.246094 81.753906 253.035156 81.210938 252.183594 80.183594 C 251.023438 78.789062 250.863281 76.9375 251.515625 75.375 C 250.785156 73.730469 251.027344 71.734375 252.316406 70.320312 C 252.847656 69.734375 253.414062 69.179688 253.957031 68.609375 C 256.640625 62.273438 259.441406 55.917969 261.472656 49.550781 C 262.902344 48.382812 264.347656 47.242188 265.789062 46.09375 C 265.785156 46.082031 265.773438 46.074219 265.769531 46.058594 C 263.554688 47.820312 261.355469 49.609375 259.171875 51.421875 C 235.949219 70.65625 219.675781 84.855469 233.375 105.648438 C 239.195312 114.480469 250.394531 124.855469 261.238281 126.78125 C 266.9375 127.800781 272.585938 125.867188 278.546875 123.824219 C 283.574219 122.101562 288.769531 120.320312 294.523438 120.0625 C 304.328125 119.6875 311.320312 123.941406 313.914062 131.894531 C 322.246094 157.429688 291.628906 171.296875 272.605469 178.050781 C 246.691406 187.257812 216.335938 185.398438 202.691406 213.839844 C 197.042969 225.613281 193.832031 237.082031 192.695312 248.132812 C 194.332031 249.292969 195.140625 251.367188 194.484375 253.371094 C 194.210938 254.222656 191.738281 262.601562 194.09375 275.386719 C 194.941406 279.460938 196.085938 283.453125 197.464844 287.363281 C 204.742188 306.550781 223.167969 331.480469 267.371094 355.8125 C 333.453125 392.1875 371.996094 429.289062 381.921875 466.082031 C 387.441406 486.539062 384.230469 506.941406 372.371094 526.722656 C 371.511719 528.152344 370.015625 528.945312 368.464844 528.988281 C 369.914062 534.355469 371.03125 539.835938 372.261719 545.375 C 373.296875 550.039062 374.007812 554.9375 375.789062 559.382812 C 376.917969 562.199219 378.335938 564.800781 379.628906 567.46875 C 389.414062 556.121094 404.558594 532.425781 401.171875 496.925781 C 396.644531 449.550781 359.996094 398.042969 295.175781 347.976562 C 247.226562 310.9375 243.808594 279.769531 249.390625 260.140625 C 261.457031 217.679688 327.503906 184.21875 417.652344 174.886719 C 471.8125 169.28125 486.230469 147.988281 490 135.796875 C 494.277344 121.984375 489.03125 105.804688 476.957031 95.550781 C 469.789062 89.464844 461.425781 86.410156 453.007812 86.542969 C 448.003906 86.652344 442.988281 87.875 438.199219 90.273438 C 432.558594 93.09375 427.007812 96.121094 421.636719 99.054688 " fill-opacity="1" fill-rule="nonzero"/><path fill="rgb(0%, 76.078796%, 79.60968%)" d="M 435.449219 567.210938 C 444.894531 556.496094 449.304688 539.148438 447.863281 518.363281 C 444.484375 469.691406 411.609375 414.132812 359.925781 369.742188 C 319.058594 334.640625 302.308594 304.132812 310.140625 279.054688 C 320.648438 245.421875 374.597656 223.335938 470.484375 213.410156 C 472.175781 213.214844 473.648438 213.996094 474.601562 215.226562 C 503.175781 205.433594 526.195312 185.445312 538.339844 168.085938 C 543.800781 160.277344 547.597656 152.023438 549.902344 143.589844 C 549.769531 143.546875 549.640625 143.566406 549.511719 143.511719 C 547.128906 142.488281 546.023438 139.726562 547.046875 137.34375 C 559.84375 107.460938 538.585938 81.40625 538.367188 81.144531 C 537.382812 79.960938 537.160156 78.449219 537.492188 77.054688 C 523.964844 57.984375 500.222656 42.457031 476.082031 47.515625 C 468.925781 49.011719 461.777344 50.828125 454.816406 53.238281 C 454.796875 54.941406 453.90625 56.585938 452.273438 57.398438 C 446.636719 60.21875 441.085938 63.25 435.714844 66.179688 C 419.347656 75.113281 404.695312 83.101562 392.019531 83.105469 C 388.226562 83.105469 384.609375 82.386719 381.171875 80.765625 C 371.347656 76.125 364.769531 64.488281 361.0625 45.183594 C 358.441406 31.539062 352.734375 23.054688 344.101562 19.953125 C 322.644531 12.257812 285.535156 37.527344 273.042969 47.90625 C 271.046875 49.566406 268.09375 49.292969 266.433594 47.296875 C 266.132812 46.933594 265.964844 46.515625 265.789062 46.097656 C 264.347656 47.246094 262.902344 48.382812 261.472656 49.554688 C 259.441406 55.917969 256.640625 62.273438 253.957031 68.609375 C 259.0625 63.21875 264.691406 58.308594 270.773438 54.054688 C 276.160156 50.289062 282.332031 46.78125 288.617188 43.910156 C 294.875 41.054688 302.660156 37.496094 313.648438 35.992188 C 318.289062 35.359375 323.078125 34.703125 329.34375 35.648438 C 333.390625 36.257812 345.671875 38.113281 353.636719 48.066406 C 356.859375 52.09375 358.066406 55.800781 360.066406 61.945312 C 361.242188 65.554688 361.695312 67.953125 362.269531 70.988281 C 362.753906 73.558594 363.359375 76.757812 364.65625 81.816406 C 366.496094 88.996094 367.25 90.25 367.652344 90.925781 C 369.941406 94.746094 372.628906 97.25 375.628906 98.382812 C 378.203125 99.363281 381.035156 99.332031 389.359375 96.5 C 399.914062 92.917969 408.242188 88.566406 415.875 84.421875 C 420.660156 81.816406 424.109375 79.851562 426.777344 78.335938 C 433.109375 74.726562 435.484375 73.375 440.707031 72.085938 C 450.148438 69.75 458.253906 70.214844 463.394531 71.019531 C 468.285156 71.78125 475.707031 73.367188 483.59375 78.296875 C 500.117188 88.625 505.527344 105.820312 507.085938 112.734375 C 510.335938 127.144531 507.019531 138.878906 505.445312 143.257812 C 502.085938 152.566406 496.960938 158.402344 494.207031 161.535156 C 484.09375 173.042969 472.601562 177.917969 464.992188 181.148438 C 455.917969 184.988281 448.824219 186.472656 441.3125 188.039062 C 433.742188 189.621094 428.980469 190.089844 422.390625 190.738281 C 419.046875 191.070312 415.203125 191.445312 410.230469 192.050781 C 410.097656 192.066406 396.835938 193.683594 382.214844 196.375 C 366.335938 199.292969 349.9375 202.3125 330.226562 210.46875 C 311.863281 218.066406 299.949219 226.40625 292.832031 231.390625 C 285.546875 236.492188 277.914062 242.492188 271.472656 251.777344 C 267.921875 256.894531 265.660156 261.636719 264.746094 265.871094 C 263.136719 273.335938 264.59375 279.367188 265.5625 283.355469 C 266.566406 287.507812 268.738281 294.222656 275.972656 304.601562 C 281.265625 312.203125 287.617188 319.535156 302.902344 332.601562 C 312.769531 341.03125 320.199219 346.59375 325.625 350.65625 L 329.308594 353.429688 C 364.628906 380.359375 384.429688 412.238281 395.066406 429.359375 C 407.460938 449.3125 411.496094 460.832031 413.628906 468.644531 C 418.402344 486.132812 418.132812 500.671875 418.019531 506.882812 C 417.820312 517.394531 417.578125 530.476562 411.804688 545.917969 C 407.96875 556.183594 402.398438 565.652344 395.199219 574.199219 C 408.269531 573.023438 421.390625 572.265625 434.484375 571.375 C 434.148438 569.941406 434.40625 568.394531 435.449219 567.210938 " fill-opacity="1" fill-rule="nonzero"/><path fill="rgb(1.179504%, 59.609985%, 61.959839%)" d="M 386.246094 574.378906 C 397.003906 562.175781 414.484375 535.773438 410.691406 496.027344 C 405.847656 445.28125 368.96875 392.964844 301.085938 340.535156 C 266.421875 313.761719 251.730469 286.847656 258.589844 262.703125 C 269.429688 224.558594 333.808594 193.019531 418.789062 184.222656 C 478.316406 178.058594 494.683594 152.972656 499.136719 138.566406 C 504.597656 120.933594 498.339844 101.234375 483.203125 88.378906 C 468.765625 76.109375 450.367188 73.679688 434 81.871094 C 428.214844 84.769531 422.585938 87.835938 417.144531 90.808594 C 398.917969 100.753906 381.695312 110.144531 371.097656 105.144531 C 364.175781 101.875 359.304688 92.433594 356.199219 76.285156 C 352.910156 59.144531 345.160156 48.277344 333.179688 43.984375 C 302.300781 32.925781 254.964844 71.894531 252.964844 73.558594 C 252.304688 74.109375 251.90625 74.824219 251.632812 75.582031 C 251.078125 77.097656 251.25 78.839844 252.359375 80.171875 C 253.175781 81.15625 254.3125 81.714844 255.492188 81.832031 C 256.699219 81.957031 257.957031 81.625 258.964844 80.78125 C 269.875 71.714844 299.566406 51.3125 321.199219 51.40625 C 324.335938 51.421875 327.304688 51.855469 330.023438 52.828125 C 338.65625 55.925781 344.363281 64.414062 346.984375 78.054688 C 350.691406 97.363281 357.273438 109 367.09375 113.640625 C 370.808594 115.390625 374.734375 116.085938 378.863281 115.960938 C 391.328125 115.59375 405.664062 107.769531 421.636719 99.054688 C 427.007812 96.125 432.558594 93.09375 438.199219 90.273438 C 442.988281 87.878906 448.003906 86.652344 453.007812 86.542969 C 461.480469 86.363281 469.914062 89.410156 477.132812 95.539062 C 489.207031 105.796875 494.449219 121.96875 490.175781 135.789062 C 486.402344 147.976562 471.984375 169.273438 417.824219 174.878906 C 327.675781 184.210938 261.628906 217.675781 249.5625 260.132812 C 243.984375 279.761719 247.402344 310.933594 295.351562 347.96875 C 360.171875 398.035156 396.828125 449.542969 401.351562 496.921875 C 404.804688 533.136719 388.960938 557.101562 379.207031 568.164062 C 377.492188 570.109375 377.675781 573.074219 379.621094 574.792969 C 380.039062 575.164062 380.511719 575.425781 381.003906 575.621094 C 381.558594 575.839844 382.136719 575.96875 382.722656 575.96875 C 384.023438 575.96875 385.316406 575.429688 386.246094 574.378906 " fill-opacity="1" fill-rule="nonzero"/><path fill="rgb(1.179504%, 59.609985%, 61.959839%)" d="M 366.039062 362.613281 C 328.28125 330.183594 312.492188 303.015625 319.101562 281.855469 C 328.257812 252.558594 380.9375 232.121094 471.449219 222.75 C 474.027344 222.484375 475.902344 220.175781 475.636719 217.597656 C 475.539062 216.675781 475.128906 215.902344 474.601562 215.222656 C 473.652344 213.996094 472.175781 213.214844 470.484375 213.40625 C 374.597656 223.335938 320.648438 245.421875 310.144531 279.050781 C 302.308594 304.132812 319.058594 334.640625 359.925781 369.738281 C 411.613281 414.132812 444.488281 469.691406 447.863281 518.363281 C 449.304688 539.148438 444.898438 556.496094 435.453125 567.207031 C 434.40625 568.394531 434.152344 569.941406 434.484375 571.375 C 434.699219 572.289062 435.105469 573.167969 435.867188 573.839844 C 436.757812 574.625 437.867188 575.011719 438.96875 575.011719 C 440.269531 575.011719 441.5625 574.476562 442.488281 573.425781 C 453.609375 560.8125 458.84375 541.027344 457.226562 517.710938 C 457.191406 517.21875 457.109375 516.714844 457.070312 516.222656 C 452.972656 465.457031 419.074219 408.164062 366.039062 362.613281 " fill-opacity="1" fill-rule="nonzero"/><path fill="rgb(1.179504%, 59.609985%, 61.959839%)" d="M 266.433594 47.296875 C 268.09375 49.289062 271.046875 49.566406 273.042969 47.910156 C 285.535156 37.523438 322.644531 12.261719 344.101562 19.957031 C 352.734375 23.050781 358.441406 31.535156 361.0625 45.183594 C 364.769531 64.484375 371.347656 76.125 381.171875 80.765625 C 384.609375 82.382812 388.226562 83.105469 392.019531 83.105469 C 404.699219 83.101562 419.347656 75.109375 435.714844 66.179688 C 441.085938 63.246094 446.636719 60.21875 452.277344 57.398438 C 453.90625 56.585938 454.796875 54.945312 454.816406 53.234375 C 454.824219 52.515625 454.71875 51.789062 454.375 51.097656 C 453.21875 48.777344 450.40625 47.832031 448.078125 48.996094 C 442.292969 51.894531 436.664062 54.964844 431.222656 57.933594 C 412.992188 67.878906 395.78125 77.277344 385.175781 72.269531 C 378.253906 69 373.378906 59.558594 370.277344 43.410156 C 366.984375 26.269531 359.238281 15.402344 347.257812 11.109375 C 316.382812 0.0390625 269.046875 39.019531 267.042969 40.683594 C 265.425781 42.027344 265.007812 44.210938 265.769531 46.0625 C 265.773438 46.070312 265.785156 46.085938 265.789062 46.097656 C 265.964844 46.515625 266.132812 46.929688 266.433594 47.296875 " fill-opacity="1" fill-rule="nonzero"/><path fill="rgb(1.179504%, 59.609985%, 61.959839%)" d="M 538.371094 81.144531 C 538.585938 81.40625 559.84375 107.460938 547.046875 137.34375 C 546.023438 139.726562 547.128906 142.488281 549.507812 143.507812 C 549.640625 143.5625 549.773438 143.546875 549.902344 143.589844 C 550.382812 143.753906 550.871094 143.894531 551.355469 143.894531 C 553.179688 143.894531 554.910156 142.824219 555.671875 141.046875 C 566.554688 115.632812 556.960938 93.199219 550.425781 82.230469 C 547.925781 78.042969 545.863281 75.476562 545.578125 75.132812 C 543.917969 73.140625 540.960938 72.867188 538.96875 74.53125 C 538.164062 75.203125 537.71875 76.109375 537.492188 77.054688 C 537.15625 78.449219 537.382812 79.960938 538.371094 81.144531 " fill-opacity="1" fill-rule="nonzero"/><path fill="rgb(1.179504%, 59.609985%, 61.959839%)" d="M 482.386719 280.308594 C 479.816406 279.488281 418.957031 260.523438 384.761719 279.640625 C 373.886719 285.71875 366.832031 294.96875 363.792969 307.125 C 358.710938 327.484375 371.53125 341.484375 389.28125 360.859375 C 408.066406 381.367188 433.792969 409.449219 453.121094 460.226562 C 453.832031 462.101562 455.617188 463.253906 457.507812 463.253906 C 458.03125 463.253906 458.5625 463.144531 459.082031 462.960938 C 459.113281 462.949219 459.144531 462.953125 459.175781 462.945312 C 461.601562 462.019531 462.816406 459.304688 461.894531 456.882812 C 441.925781 404.425781 415.496094 375.578125 396.199219 354.511719 C 379.261719 336.023438 369.039062 324.863281 372.898438 309.40625 C 375.316406 299.730469 380.691406 292.675781 389.324219 287.847656 C 419.972656 270.707031 478.964844 289.074219 479.554688 289.257812 C 482.019531 290.039062 484.664062 288.675781 485.445312 286.203125 C 485.652344 285.539062 485.6875 284.871094 485.609375 284.222656 C 485.390625 282.453125 484.195312 280.882812 482.386719 280.308594 " fill-opacity="1" fill-rule="nonzero"/><path fill="rgb(1.179504%, 59.609985%, 61.959839%)" d="M 372.371094 526.722656 C 384.226562 506.941406 387.441406 486.539062 381.921875 466.082031 C 371.996094 429.289062 333.453125 392.1875 267.371094 355.816406 C 223.167969 331.484375 204.742188 306.550781 197.464844 287.367188 C 195.828125 283.054688 194.769531 279.046875 194.09375 275.390625 C 191.738281 262.605469 194.210938 254.222656 194.484375 253.371094 C 195.140625 251.371094 194.328125 249.296875 192.695312 248.136719 C 192.328125 247.871094 191.960938 247.601562 191.511719 247.453125 C 189.046875 246.632812 186.390625 247.96875 185.574219 250.425781 C 184.757812 252.878906 166.671875 311.105469 262.847656 364.042969 C 326.609375 399.144531 363.625 434.296875 372.859375 468.53125 C 377.691406 486.429688 374.816406 504.382812 364.324219 521.886719 C 362.988281 524.113281 363.707031 527 365.929688 528.332031 C 366.6875 528.789062 367.519531 529.003906 368.34375 529.003906 C 368.382812 529.003906 368.421875 528.988281 368.464844 528.988281 C 370.015625 528.945312 371.511719 528.152344 372.371094 526.722656 " fill-opacity="1" fill-rule="nonzero"/></svg>