<?xml version="1.0" encoding="UTF-8"?><svg xmlns="http://www.w3.org/2000/svg" xmlns:xlink="http://www.w3.org/1999/xlink" contentScriptType="text/ecmascript" width="432pt" zoomAndPan="magnify" contentStyleType="text/css" viewBox="0 0 432 72" height="72pt" preserveAspectRatio="xMidYMid meet" version="1.2"><defs><g/></defs><g xml:id="surface1" id="surface1"><g style="fill:rgb(100%,0%,100%);fill-opacity:1;"><g transform="translate(20.022234, 59.226667)"><path style="stroke:none;" d="M 35.859375 -29.328125 C 35.859375 -24.523438 34.441406 -20.8125 31.609375 -18.1875 C 28.773438 -15.570312 24.75 -14.265625 19.53125 -14.265625 L 16.265625 -14.265625 L 16.265625 0 L 4.640625 0 L 4.640625 -43 L 19.53125 -43 C 24.957031 -43 29.035156 -41.8125 31.765625 -39.4375 C 34.492188 -37.0625 35.859375 -33.691406 35.859375 -29.328125 Z M 16.265625 -23.734375 L 18.375 -23.734375 C 20.125 -23.734375 21.515625 -24.222656 22.546875 -25.203125 C 23.578125 -26.179688 24.09375 -27.535156 24.09375 -29.265625 C 24.09375 -32.160156 22.484375 -33.609375 19.265625 -33.609375 L 16.265625 -33.609375 Z M 16.265625 -23.734375 "/></g></g><g style="fill:rgb(100%,0%,100%);fill-opacity:1;"><g transform="translate(58.073071, 59.226667)"><path style="stroke:none;" d="M 20.0625 0.59375 C 14.507812 0.59375 10.195312 -0.878906 7.125 -3.828125 C 4.0625 -6.785156 2.53125 -10.988281 2.53125 -16.4375 C 2.53125 -22.0625 3.953125 -26.378906 6.796875 -29.390625 C 9.640625 -32.398438 13.695312 -33.90625 18.96875 -33.90625 C 23.988281 -33.90625 27.863281 -32.597656 30.59375 -29.984375 C 33.332031 -27.367188 34.703125 -23.597656 34.703125 -18.671875 L 34.703125 -13.5625 L 14.140625 -13.5625 C 14.222656 -11.695312 14.90625 -10.234375 16.1875 -9.171875 C 17.476562 -8.117188 19.226562 -7.59375 21.4375 -7.59375 C 23.457031 -7.59375 25.316406 -7.78125 27.015625 -8.15625 C 28.710938 -8.539062 30.550781 -9.195312 32.53125 -10.125 L 32.53125 -1.859375 C 30.726562 -0.929688 28.863281 -0.289062 26.9375 0.0625 C 25.019531 0.414062 22.726562 0.59375 20.0625 0.59375 Z M 19.375 -26.09375 C 18.03125 -26.09375 16.898438 -25.664062 15.984375 -24.8125 C 15.078125 -23.957031 14.539062 -22.617188 14.375 -20.796875 L 24.265625 -20.796875 C 24.222656 -22.398438 23.765625 -23.679688 22.890625 -24.640625 C 22.023438 -25.609375 20.851562 -26.09375 19.375 -26.09375 Z M 19.375 -26.09375 "/></g></g><g style="fill:rgb(100%,0%,100%);fill-opacity:1;"><g transform="translate(95.300551, 59.226667)"><path style="stroke:none;" d="M 24.328125 -33.90625 C 27.953125 -33.90625 30.828125 -32.382812 32.953125 -29.34375 C 35.078125 -26.3125 36.140625 -22.109375 36.140625 -16.734375 C 36.140625 -11.328125 35.066406 -7.085938 32.921875 -4.015625 C 30.773438 -0.941406 27.789062 0.59375 23.96875 0.59375 C 22.738281 0.59375 21.640625 0.457031 20.671875 0.1875 C 19.710938 -0.0703125 18.851562 -0.4375 18.09375 -0.90625 C 17.34375 -1.382812 16.46875 -2.171875 15.46875 -3.265625 L 14.765625 -3.265625 L 12.9375 0 L 3.96875 0 L 3.96875 -45.765625 L 15.46875 -45.765625 L 15.46875 -35.40625 C 15.46875 -34.175781 15.332031 -32.050781 15.0625 -29.03125 L 15.46875 -29.03125 C 16.582031 -30.75 17.867188 -31.988281 19.328125 -32.75 C 20.796875 -33.519531 22.460938 -33.90625 24.328125 -33.90625 Z M 20.125 -24.875 C 18.507812 -24.875 17.328125 -24.316406 16.578125 -23.203125 C 15.835938 -22.085938 15.46875 -20.332031 15.46875 -17.9375 L 15.46875 -16.328125 C 15.46875 -13.597656 15.835938 -11.640625 16.578125 -10.453125 C 17.328125 -9.265625 18.546875 -8.671875 20.234375 -8.671875 C 21.585938 -8.671875 22.625 -9.363281 23.34375 -10.75 C 24.070312 -12.132812 24.4375 -14.171875 24.4375 -16.859375 C 24.4375 -22.203125 23 -24.875 20.125 -24.875 Z M 20.125 -24.875 "/></g></g><g style="fill:rgb(100%,0%,100%);fill-opacity:1;"><g transform="translate(134.027722, 59.226667)"><path style="stroke:none;" d="M 24.328125 -33.90625 C 27.953125 -33.90625 30.828125 -32.382812 32.953125 -29.34375 C 35.078125 -26.3125 36.140625 -22.109375 36.140625 -16.734375 C 36.140625 -11.328125 35.066406 -7.085938 32.921875 -4.015625 C 30.773438 -0.941406 27.789062 0.59375 23.96875 0.59375 C 22.738281 0.59375 21.640625 0.457031 20.671875 0.1875 C 19.710938 -0.0703125 18.851562 -0.4375 18.09375 -0.90625 C 17.34375 -1.382812 16.46875 -2.171875 15.46875 -3.265625 L 14.765625 -3.265625 L 12.9375 0 L 3.96875 0 L 3.96875 -45.765625 L 15.46875 -45.765625 L 15.46875 -35.40625 C 15.46875 -34.175781 15.332031 -32.050781 15.0625 -29.03125 L 15.46875 -29.03125 C 16.582031 -30.75 17.867188 -31.988281 19.328125 -32.75 C 20.796875 -33.519531 22.460938 -33.90625 24.328125 -33.90625 Z M 20.125 -24.875 C 18.507812 -24.875 17.328125 -24.316406 16.578125 -23.203125 C 15.835938 -22.085938 15.46875 -20.332031 15.46875 -17.9375 L 15.46875 -16.328125 C 15.46875 -13.597656 15.835938 -11.640625 16.578125 -10.453125 C 17.328125 -9.265625 18.546875 -8.671875 20.234375 -8.671875 C 21.585938 -8.671875 22.625 -9.363281 23.34375 -10.75 C 24.070312 -12.132812 24.4375 -14.171875 24.4375 -16.859375 C 24.4375 -22.203125 23 -24.875 20.125 -24.875 Z M 20.125 -24.875 "/></g></g><g style="fill:rgb(100%,0%,100%);fill-opacity:1;"><g transform="translate(172.754893, 59.226667)"><path style="stroke:none;" d="M 15.46875 0 L 3.96875 0 L 3.96875 -45.765625 L 15.46875 -45.765625 Z M 15.46875 0 "/></g></g><g style="fill:rgb(100%,0%,100%);fill-opacity:1;"><g transform="translate(192.221395, 59.226667)"><path style="stroke:none;" d="M 20.0625 0.59375 C 14.507812 0.59375 10.195312 -0.878906 7.125 -3.828125 C 4.0625 -6.785156 2.53125 -10.988281 2.53125 -16.4375 C 2.53125 -22.0625 3.953125 -26.378906 6.796875 -29.390625 C 9.640625 -32.398438 13.695312 -33.90625 18.96875 -33.90625 C 23.988281 -33.90625 27.863281 -32.597656 30.59375 -29.984375 C 33.332031 -27.367188 34.703125 -23.597656 34.703125 -18.671875 L 34.703125 -13.5625 L 14.140625 -13.5625 C 14.222656 -11.695312 14.90625 -10.234375 16.1875 -9.171875 C 17.476562 -8.117188 19.226562 -7.59375 21.4375 -7.59375 C 23.457031 -7.59375 25.316406 -7.78125 27.015625 -8.15625 C 28.710938 -8.539062 30.550781 -9.195312 32.53125 -10.125 L 32.53125 -1.859375 C 30.726562 -0.929688 28.863281 -0.289062 26.9375 0.0625 C 25.019531 0.414062 22.726562 0.59375 20.0625 0.59375 Z M 19.375 -26.09375 C 18.03125 -26.09375 16.898438 -25.664062 15.984375 -24.8125 C 15.078125 -23.957031 14.539062 -22.617188 14.375 -20.796875 L 24.265625 -20.796875 C 24.222656 -22.398438 23.765625 -23.679688 22.890625 -24.640625 C 22.023438 -25.609375 20.851562 -26.09375 19.375 -26.09375 Z M 19.375 -26.09375 "/></g></g><g style="fill:rgb(0%,100%,100%);fill-opacity:1;"><g transform="translate(17.763485, 59.226667)"><path style="stroke:none;" d="M 35.859375 -29.328125 C 35.859375 -24.523438 34.441406 -20.8125 31.609375 -18.1875 C 28.773438 -15.570312 24.75 -14.265625 19.53125 -14.265625 L 16.265625 -14.265625 L 16.265625 0 L 4.640625 0 L 4.640625 -43 L 19.53125 -43 C 24.957031 -43 29.035156 -41.8125 31.765625 -39.4375 C 34.492188 -37.0625 35.859375 -33.691406 35.859375 -29.328125 Z M 16.265625 -23.734375 L 18.375 -23.734375 C 20.125 -23.734375 21.515625 -24.222656 22.546875 -25.203125 C 23.578125 -26.179688 24.09375 -27.535156 24.09375 -29.265625 C 24.09375 -32.160156 22.484375 -33.609375 19.265625 -33.609375 L 16.265625 -33.609375 Z M 16.265625 -23.734375 "/></g></g><g style="fill:rgb(0%,100%,100%);fill-opacity:1;"><g transform="translate(55.814322, 59.226667)"><path style="stroke:none;" d="M 20.0625 0.59375 C 14.507812 0.59375 10.195312 -0.878906 7.125 -3.828125 C 4.0625 -6.785156 2.53125 -10.988281 2.53125 -16.4375 C 2.53125 -22.0625 3.953125 -26.378906 6.796875 -29.390625 C 9.640625 -32.398438 13.695312 -33.90625 18.96875 -33.90625 C 23.988281 -33.90625 27.863281 -32.597656 30.59375 -29.984375 C 33.332031 -27.367188 34.703125 -23.597656 34.703125 -18.671875 L 34.703125 -13.5625 L 14.140625 -13.5625 C 14.222656 -11.695312 14.90625 -10.234375 16.1875 -9.171875 C 17.476562 -8.117188 19.226562 -7.59375 21.4375 -7.59375 C 23.457031 -7.59375 25.316406 -7.78125 27.015625 -8.15625 C 28.710938 -8.539062 30.550781 -9.195312 32.53125 -10.125 L 32.53125 -1.859375 C 30.726562 -0.929688 28.863281 -0.289062 26.9375 0.0625 C 25.019531 0.414062 22.726562 0.59375 20.0625 0.59375 Z M 19.375 -26.09375 C 18.03125 -26.09375 16.898438 -25.664062 15.984375 -24.8125 C 15.078125 -23.957031 14.539062 -22.617188 14.375 -20.796875 L 24.265625 -20.796875 C 24.222656 -22.398438 23.765625 -23.679688 22.890625 -24.640625 C 22.023438 -25.609375 20.851562 -26.09375 19.375 -26.09375 Z M 19.375 -26.09375 "/></g></g><g style="fill:rgb(0%,100%,100%);fill-opacity:1;"><g transform="translate(93.041802, 59.226667)"><path style="stroke:none;" d="M 24.328125 -33.90625 C 27.953125 -33.90625 30.828125 -32.382812 32.953125 -29.34375 C 35.078125 -26.3125 36.140625 -22.109375 36.140625 -16.734375 C 36.140625 -11.328125 35.066406 -7.085938 32.921875 -4.015625 C 30.773438 -0.941406 27.789062 0.59375 23.96875 0.59375 C 22.738281 0.59375 21.640625 0.457031 20.671875 0.1875 C 19.710938 -0.0703125 18.851562 -0.4375 18.09375 -0.90625 C 17.34375 -1.382812 16.46875 -2.171875 15.46875 -3.265625 L 14.765625 -3.265625 L 12.9375 0 L 3.96875 0 L 3.96875 -45.765625 L 15.46875 -45.765625 L 15.46875 -35.40625 C 15.46875 -34.175781 15.332031 -32.050781 15.0625 -29.03125 L 15.46875 -29.03125 C 16.582031 -30.75 17.867188 -31.988281 19.328125 -32.75 C 20.796875 -33.519531 22.460938 -33.90625 24.328125 -33.90625 Z M 20.125 -24.875 C 18.507812 -24.875 17.328125 -24.316406 16.578125 -23.203125 C 15.835938 -22.085938 15.46875 -20.332031 15.46875 -17.9375 L 15.46875 -16.328125 C 15.46875 -13.597656 15.835938 -11.640625 16.578125 -10.453125 C 17.328125 -9.265625 18.546875 -8.671875 20.234375 -8.671875 C 21.585938 -8.671875 22.625 -9.363281 23.34375 -10.75 C 24.070312 -12.132812 24.4375 -14.171875 24.4375 -16.859375 C 24.4375 -22.203125 23 -24.875 20.125 -24.875 Z M 20.125 -24.875 "/></g></g><g style="fill:rgb(0%,100%,100%);fill-opacity:1;"><g transform="translate(131.768973, 59.226667)"><path style="stroke:none;" d="M 24.328125 -33.90625 C 27.953125 -33.90625 30.828125 -32.382812 32.953125 -29.34375 C 35.078125 -26.3125 36.140625 -22.109375 36.140625 -16.734375 C 36.140625 -11.328125 35.066406 -7.085938 32.921875 -4.015625 C 30.773438 -0.941406 27.789062 0.59375 23.96875 0.59375 C 22.738281 0.59375 21.640625 0.457031 20.671875 0.1875 C 19.710938 -0.0703125 18.851562 -0.4375 18.09375 -0.90625 C 17.34375 -1.382812 16.46875 -2.171875 15.46875 -3.265625 L 14.765625 -3.265625 L 12.9375 0 L 3.96875 0 L 3.96875 -45.765625 L 15.46875 -45.765625 L 15.46875 -35.40625 C 15.46875 -34.175781 15.332031 -32.050781 15.0625 -29.03125 L 15.46875 -29.03125 C 16.582031 -30.75 17.867188 -31.988281 19.328125 -32.75 C 20.796875 -33.519531 22.460938 -33.90625 24.328125 -33.90625 Z M 20.125 -24.875 C 18.507812 -24.875 17.328125 -24.316406 16.578125 -23.203125 C 15.835938 -22.085938 15.46875 -20.332031 15.46875 -17.9375 L 15.46875 -16.328125 C 15.46875 -13.597656 15.835938 -11.640625 16.578125 -10.453125 C 17.328125 -9.265625 18.546875 -8.671875 20.234375 -8.671875 C 21.585938 -8.671875 22.625 -9.363281 23.34375 -10.75 C 24.070312 -12.132812 24.4375 -14.171875 24.4375 -16.859375 C 24.4375 -22.203125 23 -24.875 20.125 -24.875 Z M 20.125 -24.875 "/></g></g><g style="fill:rgb(0%,100%,100%);fill-opacity:1;"><g transform="translate(170.496144, 59.226667)"><path style="stroke:none;" d="M 15.46875 0 L 3.96875 0 L 3.96875 -45.765625 L 15.46875 -45.765625 Z M 15.46875 0 "/></g></g><g style="fill:rgb(0%,100%,100%);fill-opacity:1;"><g transform="translate(189.962647, 59.226667)"><path style="stroke:none;" d="M 20.0625 0.59375 C 14.507812 0.59375 10.195312 -0.878906 7.125 -3.828125 C 4.0625 -6.785156 2.53125 -10.988281 2.53125 -16.4375 C 2.53125 -22.0625 3.953125 -26.378906 6.796875 -29.390625 C 9.640625 -32.398438 13.695312 -33.90625 18.96875 -33.90625 C 23.988281 -33.90625 27.863281 -32.597656 30.59375 -29.984375 C 33.332031 -27.367188 34.703125 -23.597656 34.703125 -18.671875 L 34.703125 -13.5625 L 14.140625 -13.5625 C 14.222656 -11.695312 14.90625 -10.234375 16.1875 -9.171875 C 17.476562 -8.117188 19.226562 -7.59375 21.4375 -7.59375 C 23.457031 -7.59375 25.316406 -7.78125 27.015625 -8.15625 C 28.710938 -8.539062 30.550781 -9.195312 32.53125 -10.125 L 32.53125 -1.859375 C 30.726562 -0.929688 28.863281 -0.289062 26.9375 0.0625 C 25.019531 0.414062 22.726562 0.59375 20.0625 0.59375 Z M 19.375 -26.09375 C 18.03125 -26.09375 16.898438 -25.664062 15.984375 -24.8125 C 15.078125 -23.957031 14.539062 -22.617188 14.375 -20.796875 L 24.265625 -20.796875 C 24.222656 -22.398438 23.765625 -23.679688 22.890625 -24.640625 C 22.023438 -25.609375 20.851562 -26.09375 19.375 -26.09375 Z M 19.375 -26.09375 "/></g></g><g style="fill:rgb(0%,0%,0%);fill-opacity:1;"><g transform="translate(18.89286, 59.226667)"><path style="stroke:none;" d="M 35.859375 -29.328125 C 35.859375 -24.523438 34.441406 -20.8125 31.609375 -18.1875 C 28.773438 -15.570312 24.75 -14.265625 19.53125 -14.265625 L 16.265625 -14.265625 L 16.265625 0 L 4.640625 0 L 4.640625 -43 L 19.53125 -43 C 24.957031 -43 29.035156 -41.8125 31.765625 -39.4375 C 34.492188 -37.0625 35.859375 -33.691406 35.859375 -29.328125 Z M 16.265625 -23.734375 L 18.375 -23.734375 C 20.125 -23.734375 21.515625 -24.222656 22.546875 -25.203125 C 23.578125 -26.179688 24.09375 -27.535156 24.09375 -29.265625 C 24.09375 -32.160156 22.484375 -33.609375 19.265625 -33.609375 L 16.265625 -33.609375 Z M 16.265625 -23.734375 "/></g></g><g style="fill:rgb(0%,0%,0%);fill-opacity:1;"><g transform="translate(56.943697, 59.226667)"><path style="stroke:none;" d="M 20.0625 0.59375 C 14.507812 0.59375 10.195312 -0.878906 7.125 -3.828125 C 4.0625 -6.785156 2.53125 -10.988281 2.53125 -16.4375 C 2.53125 -22.0625 3.953125 -26.378906 6.796875 -29.390625 C 9.640625 -32.398438 13.695312 -33.90625 18.96875 -33.90625 C 23.988281 -33.90625 27.863281 -32.597656 30.59375 -29.984375 C 33.332031 -27.367188 34.703125 -23.597656 34.703125 -18.671875 L 34.703125 -13.5625 L 14.140625 -13.5625 C 14.222656 -11.695312 14.90625 -10.234375 16.1875 -9.171875 C 17.476562 -8.117188 19.226562 -7.59375 21.4375 -7.59375 C 23.457031 -7.59375 25.316406 -7.78125 27.015625 -8.15625 C 28.710938 -8.539062 30.550781 -9.195312 32.53125 -10.125 L 32.53125 -1.859375 C 30.726562 -0.929688 28.863281 -0.289062 26.9375 0.0625 C 25.019531 0.414062 22.726562 0.59375 20.0625 0.59375 Z M 19.375 -26.09375 C 18.03125 -26.09375 16.898438 -25.664062 15.984375 -24.8125 C 15.078125 -23.957031 14.539062 -22.617188 14.375 -20.796875 L 24.265625 -20.796875 C 24.222656 -22.398438 23.765625 -23.679688 22.890625 -24.640625 C 22.023438 -25.609375 20.851562 -26.09375 19.375 -26.09375 Z M 19.375 -26.09375 "/></g></g><g style="fill:rgb(0%,0%,0%);fill-opacity:1;"><g transform="translate(94.171177, 59.226667)"><path style="stroke:none;" d="M 24.328125 -33.90625 C 27.953125 -33.90625 30.828125 -32.382812 32.953125 -29.34375 C 35.078125 -26.3125 36.140625 -22.109375 36.140625 -16.734375 C 36.140625 -11.328125 35.066406 -7.085938 32.921875 -4.015625 C 30.773438 -0.941406 27.789062 0.59375 23.96875 0.59375 C 22.738281 0.59375 21.640625 0.457031 20.671875 0.1875 C 19.710938 -0.0703125 18.851562 -0.4375 18.09375 -0.90625 C 17.34375 -1.382812 16.46875 -2.171875 15.46875 -3.265625 L 14.765625 -3.265625 L 12.9375 0 L 3.96875 0 L 3.96875 -45.765625 L 15.46875 -45.765625 L 15.46875 -35.40625 C 15.46875 -34.175781 15.332031 -32.050781 15.0625 -29.03125 L 15.46875 -29.03125 C 16.582031 -30.75 17.867188 -31.988281 19.328125 -32.75 C 20.796875 -33.519531 22.460938 -33.90625 24.328125 -33.90625 Z M 20.125 -24.875 C 18.507812 -24.875 17.328125 -24.316406 16.578125 -23.203125 C 15.835938 -22.085938 15.46875 -20.332031 15.46875 -17.9375 L 15.46875 -16.328125 C 15.46875 -13.597656 15.835938 -11.640625 16.578125 -10.453125 C 17.328125 -9.265625 18.546875 -8.671875 20.234375 -8.671875 C 21.585938 -8.671875 22.625 -9.363281 23.34375 -10.75 C 24.070312 -12.132812 24.4375 -14.171875 24.4375 -16.859375 C 24.4375 -22.203125 23 -24.875 20.125 -24.875 Z M 20.125 -24.875 "/></g></g><g style="fill:rgb(0%,0%,0%);fill-opacity:1;"><g transform="translate(132.898347, 59.226667)"><path style="stroke:none;" d="M 24.328125 -33.90625 C 27.953125 -33.90625 30.828125 -32.382812 32.953125 -29.34375 C 35.078125 -26.3125 36.140625 -22.109375 36.140625 -16.734375 C 36.140625 -11.328125 35.066406 -7.085938 32.921875 -4.015625 C 30.773438 -0.941406 27.789062 0.59375 23.96875 0.59375 C 22.738281 0.59375 21.640625 0.457031 20.671875 0.1875 C 19.710938 -0.0703125 18.851562 -0.4375 18.09375 -0.90625 C 17.34375 -1.382812 16.46875 -2.171875 15.46875 -3.265625 L 14.765625 -3.265625 L 12.9375 0 L 3.96875 0 L 3.96875 -45.765625 L 15.46875 -45.765625 L 15.46875 -35.40625 C 15.46875 -34.175781 15.332031 -32.050781 15.0625 -29.03125 L 15.46875 -29.03125 C 16.582031 -30.75 17.867188 -31.988281 19.328125 -32.75 C 20.796875 -33.519531 22.460938 -33.90625 24.328125 -33.90625 Z M 20.125 -24.875 C 18.507812 -24.875 17.328125 -24.316406 16.578125 -23.203125 C 15.835938 -22.085938 15.46875 -20.332031 15.46875 -17.9375 L 15.46875 -16.328125 C 15.46875 -13.597656 15.835938 -11.640625 16.578125 -10.453125 C 17.328125 -9.265625 18.546875 -8.671875 20.234375 -8.671875 C 21.585938 -8.671875 22.625 -9.363281 23.34375 -10.75 C 24.070312 -12.132812 24.4375 -14.171875 24.4375 -16.859375 C 24.4375 -22.203125 23 -24.875 20.125 -24.875 Z M 20.125 -24.875 "/></g></g><g style="fill:rgb(0%,0%,0%);fill-opacity:1;"><g transform="translate(171.625518, 59.226667)"><path style="stroke:none;" d="M 15.46875 0 L 3.96875 0 L 3.96875 -45.765625 L 15.46875 -45.765625 Z M 15.46875 0 "/></g></g><g style="fill:rgb(0%,0%,0%);fill-opacity:1;"><g transform="translate(191.092021, 59.226667)"><path style="stroke:none;" d="M 20.0625 0.59375 C 14.507812 0.59375 10.195312 -0.878906 7.125 -3.828125 C 4.0625 -6.785156 2.53125 -10.988281 2.53125 -16.4375 C 2.53125 -22.0625 3.953125 -26.378906 6.796875 -29.390625 C 9.640625 -32.398438 13.695312 -33.90625 18.96875 -33.90625 C 23.988281 -33.90625 27.863281 -32.597656 30.59375 -29.984375 C 33.332031 -27.367188 34.703125 -23.597656 34.703125 -18.671875 L 34.703125 -13.5625 L 14.140625 -13.5625 C 14.222656 -11.695312 14.90625 -10.234375 16.1875 -9.171875 C 17.476562 -8.117188 19.226562 -7.59375 21.4375 -7.59375 C 23.457031 -7.59375 25.316406 -7.78125 27.015625 -8.15625 C 28.710938 -8.539062 30.550781 -9.195312 32.53125 -10.125 L 32.53125 -1.859375 C 30.726562 -0.929688 28.863281 -0.289062 26.9375 0.0625 C 25.019531 0.414062 22.726562 0.59375 20.0625 0.59375 Z M 19.375 -26.09375 C 18.03125 -26.09375 16.898438 -25.664062 15.984375 -24.8125 C 15.078125 -23.957031 14.539062 -22.617188 14.375 -20.796875 L 24.265625 -20.796875 C 24.222656 -22.398438 23.765625 -23.679688 22.890625 -24.640625 C 22.023438 -25.609375 20.851562 -26.09375 19.375 -26.09375 Z M 19.375 -26.09375 "/></g></g><g style="fill:rgb(100%,0%,100%);fill-opacity:1;"><g transform="translate(227.511744, 59.112833)"><path style="stroke:none;" d="M 0.96875 0 L 10.0625 -43 L 21.5625 -43 L 14.46875 -9.375 L 28.5 -9.375 L 26.5 0 Z M 0.96875 0 "/></g></g><g style="fill:rgb(100%,0%,100%);fill-opacity:1;"><g transform="translate(259.243187, 59.112833)"><path style="stroke:none;" d="M 26.375 -43.671875 C 31.476562 -43.671875 35.445312 -42.210938 38.28125 -39.296875 C 41.113281 -36.390625 42.53125 -32.332031 42.53125 -27.125 C 42.53125 -21.90625 41.550781 -17.132812 39.59375 -12.8125 C 37.644531 -8.488281 34.953125 -5.171875 31.515625 -2.859375 C 28.085938 -0.554688 24.113281 0.59375 19.59375 0.59375 C 14.3125 0.59375 10.234375 -0.863281 7.359375 -3.78125 C 4.492188 -6.707031 3.0625 -10.769531 3.0625 -15.96875 C 3.0625 -21.164062 4.070312 -25.941406 6.09375 -30.296875 C 8.113281 -34.648438 10.863281 -37.96875 14.34375 -40.25 C 17.820312 -42.53125 21.832031 -43.671875 26.375 -43.671875 Z M 30.90625 -27 C 30.90625 -29.238281 30.4375 -30.988281 29.5 -32.25 C 28.5625 -33.507812 27.195312 -34.140625 25.40625 -34.140625 C 23.46875 -34.140625 21.6875 -33.316406 20.0625 -31.671875 C 18.4375 -30.023438 17.132812 -27.757812 16.15625 -24.875 C 15.1875 -22 14.703125 -19.050781 14.703125 -16.03125 C 14.703125 -11.28125 16.664062 -8.90625 20.59375 -8.90625 C 22.445312 -8.90625 24.171875 -9.71875 25.765625 -11.34375 C 27.367188 -12.976562 28.625 -15.175781 29.53125 -17.9375 C 30.445312 -20.707031 30.90625 -23.726562 30.90625 -27 Z M 30.90625 -27 "/></g></g><g style="fill:rgb(100%,0%,100%);fill-opacity:1;"><g transform="translate(303.62015, 59.112833)"><path style="stroke:none;" d="M 26.375 -43.671875 C 31.476562 -43.671875 35.445312 -42.210938 38.28125 -39.296875 C 41.113281 -36.390625 42.53125 -32.332031 42.53125 -27.125 C 42.53125 -21.90625 41.550781 -17.132812 39.59375 -12.8125 C 37.644531 -8.488281 34.953125 -5.171875 31.515625 -2.859375 C 28.085938 -0.554688 24.113281 0.59375 19.59375 0.59375 C 14.3125 0.59375 10.234375 -0.863281 7.359375 -3.78125 C 4.492188 -6.707031 3.0625 -10.769531 3.0625 -15.96875 C 3.0625 -21.164062 4.070312 -25.941406 6.09375 -30.296875 C 8.113281 -34.648438 10.863281 -37.96875 14.34375 -40.25 C 17.820312 -42.53125 21.832031 -43.671875 26.375 -43.671875 Z M 30.90625 -27 C 30.90625 -29.238281 30.4375 -30.988281 29.5 -32.25 C 28.5625 -33.507812 27.195312 -34.140625 25.40625 -34.140625 C 23.46875 -34.140625 21.6875 -33.316406 20.0625 -31.671875 C 18.4375 -30.023438 17.132812 -27.757812 16.15625 -24.875 C 15.1875 -22 14.703125 -19.050781 14.703125 -16.03125 C 14.703125 -11.28125 16.664062 -8.90625 20.59375 -8.90625 C 22.445312 -8.90625 24.171875 -9.71875 25.765625 -11.34375 C 27.367188 -12.976562 28.625 -15.175781 29.53125 -17.9375 C 30.445312 -20.707031 30.90625 -23.726562 30.90625 -27 Z M 30.90625 -27 "/></g></g><g style="fill:rgb(100%,0%,100%);fill-opacity:1;"><g transform="translate(347.997113, 59.112833)"><path style="stroke:none;" d="M 18.4375 0 L 6.9375 0 L 13.90625 -33.5 L 4.59375 -33.5 L 6.625 -43 L 36.859375 -43 L 34.765625 -33.5 L 25.40625 -33.5 Z M 18.4375 0 "/></g></g><g style="fill:rgb(100%,0%,100%);fill-opacity:1;"><g transform="translate(381.228365, 59.112833)"><path style="stroke:none;" d="M 28.734375 -13.203125 C 28.734375 -8.847656 27.289062 -5.457031 24.40625 -3.03125 C 21.53125 -0.613281 17.515625 0.59375 12.359375 0.59375 C 10.203125 0.59375 8.160156 0.351562 6.234375 -0.125 C 4.316406 -0.613281 2.660156 -1.316406 1.265625 -2.234375 L 1.265625 -12.53125 C 2.910156 -11.488281 4.796875 -10.613281 6.921875 -9.90625 C 9.054688 -9.207031 10.984375 -8.859375 12.703125 -8.859375 C 14.148438 -8.859375 15.25 -9.160156 16 -9.765625 C 16.75 -10.367188 17.125 -11.234375 17.125 -12.359375 C 17.125 -12.878906 17.003906 -13.367188 16.765625 -13.828125 C 16.523438 -14.296875 16.191406 -14.757812 15.765625 -15.21875 C 15.335938 -15.675781 14.179688 -16.691406 12.296875 -18.265625 C 10.003906 -20.109375 8.335938 -21.988281 7.296875 -23.90625 C 6.253906 -25.832031 5.734375 -27.941406 5.734375 -30.234375 C 5.734375 -32.804688 6.375 -35.113281 7.65625 -37.15625 C 8.945312 -39.207031 10.765625 -40.796875 13.109375 -41.921875 C 15.453125 -43.046875 18.070312 -43.609375 20.96875 -43.609375 C 25.65625 -43.609375 29.867188 -42.5625 33.609375 -40.46875 L 29.640625 -31.734375 C 26.296875 -33.460938 23.445312 -34.328125 21.09375 -34.328125 C 19.832031 -34.328125 18.863281 -34.050781 18.1875 -33.5 C 17.507812 -32.945312 17.171875 -32.144531 17.171875 -31.09375 C 17.171875 -30.125 17.5 -29.222656 18.15625 -28.390625 C 18.8125 -27.554688 20.0625 -26.445312 21.90625 -25.0625 C 24.21875 -23.351562 25.929688 -21.554688 27.046875 -19.671875 C 28.171875 -17.796875 28.734375 -15.640625 28.734375 -13.203125 Z M 28.734375 -13.203125 "/></g></g><g style="fill:rgb(0%,100%,100%);fill-opacity:1;"><g transform="translate(225.252984, 59.112833)"><path style="stroke:none;" d="M 0.96875 0 L 10.0625 -43 L 21.5625 -43 L 14.46875 -9.375 L 28.5 -9.375 L 26.5 0 Z M 0.96875 0 "/></g></g><g style="fill:rgb(0%,100%,100%);fill-opacity:1;"><g transform="translate(256.984427, 59.112833)"><path style="stroke:none;" d="M 26.375 -43.671875 C 31.476562 -43.671875 35.445312 -42.210938 38.28125 -39.296875 C 41.113281 -36.390625 42.53125 -32.332031 42.53125 -27.125 C 42.53125 -21.90625 41.550781 -17.132812 39.59375 -12.8125 C 37.644531 -8.488281 34.953125 -5.171875 31.515625 -2.859375 C 28.085938 -0.554688 24.113281 0.59375 19.59375 0.59375 C 14.3125 0.59375 10.234375 -0.863281 7.359375 -3.78125 C 4.492188 -6.707031 3.0625 -10.769531 3.0625 -15.96875 C 3.0625 -21.164062 4.070312 -25.941406 6.09375 -30.296875 C 8.113281 -34.648438 10.863281 -37.96875 14.34375 -40.25 C 17.820312 -42.53125 21.832031 -43.671875 26.375 -43.671875 Z M 30.90625 -27 C 30.90625 -29.238281 30.4375 -30.988281 29.5 -32.25 C 28.5625 -33.507812 27.195312 -34.140625 25.40625 -34.140625 C 23.46875 -34.140625 21.6875 -33.316406 20.0625 -31.671875 C 18.4375 -30.023438 17.132812 -27.757812 16.15625 -24.875 C 15.1875 -22 14.703125 -19.050781 14.703125 -16.03125 C 14.703125 -11.28125 16.664062 -8.90625 20.59375 -8.90625 C 22.445312 -8.90625 24.171875 -9.71875 25.765625 -11.34375 C 27.367188 -12.976562 28.625 -15.175781 29.53125 -17.9375 C 30.445312 -20.707031 30.90625 -23.726562 30.90625 -27 Z M 30.90625 -27 "/></g></g><g style="fill:rgb(0%,100%,100%);fill-opacity:1;"><g transform="translate(301.36139, 59.112833)"><path style="stroke:none;" d="M 26.375 -43.671875 C 31.476562 -43.671875 35.445312 -42.210938 38.28125 -39.296875 C 41.113281 -36.390625 42.53125 -32.332031 42.53125 -27.125 C 42.53125 -21.90625 41.550781 -17.132812 39.59375 -12.8125 C 37.644531 -8.488281 34.953125 -5.171875 31.515625 -2.859375 C 28.085938 -0.554688 24.113281 0.59375 19.59375 0.59375 C 14.3125 0.59375 10.234375 -0.863281 7.359375 -3.78125 C 4.492188 -6.707031 3.0625 -10.769531 3.0625 -15.96875 C 3.0625 -21.164062 4.070312 -25.941406 6.09375 -30.296875 C 8.113281 -34.648438 10.863281 -37.96875 14.34375 -40.25 C 17.820312 -42.53125 21.832031 -43.671875 26.375 -43.671875 Z M 30.90625 -27 C 30.90625 -29.238281 30.4375 -30.988281 29.5 -32.25 C 28.5625 -33.507812 27.195312 -34.140625 25.40625 -34.140625 C 23.46875 -34.140625 21.6875 -33.316406 20.0625 -31.671875 C 18.4375 -30.023438 17.132812 -27.757812 16.15625 -24.875 C 15.1875 -22 14.703125 -19.050781 14.703125 -16.03125 C 14.703125 -11.28125 16.664062 -8.90625 20.59375 -8.90625 C 22.445312 -8.90625 24.171875 -9.71875 25.765625 -11.34375 C 27.367188 -12.976562 28.625 -15.175781 29.53125 -17.9375 C 30.445312 -20.707031 30.90625 -23.726562 30.90625 -27 Z M 30.90625 -27 "/></g></g><g style="fill:rgb(0%,100%,100%);fill-opacity:1;"><g transform="translate(345.738353, 59.112833)"><path style="stroke:none;" d="M 18.4375 0 L 6.9375 0 L 13.90625 -33.5 L 4.59375 -33.5 L 6.625 -43 L 36.859375 -43 L 34.765625 -33.5 L 25.40625 -33.5 Z M 18.4375 0 "/></g></g><g style="fill:rgb(0%,100%,100%);fill-opacity:1;"><g transform="translate(378.969605, 59.112833)"><path style="stroke:none;" d="M 28.734375 -13.203125 C 28.734375 -8.847656 27.289062 -5.457031 24.40625 -3.03125 C 21.53125 -0.613281 17.515625 0.59375 12.359375 0.59375 C 10.203125 0.59375 8.160156 0.351562 6.234375 -0.125 C 4.316406 -0.613281 2.660156 -1.316406 1.265625 -2.234375 L 1.265625 -12.53125 C 2.910156 -11.488281 4.796875 -10.613281 6.921875 -9.90625 C 9.054688 -9.207031 10.984375 -8.859375 12.703125 -8.859375 C 14.148438 -8.859375 15.25 -9.160156 16 -9.765625 C 16.75 -10.367188 17.125 -11.234375 17.125 -12.359375 C 17.125 -12.878906 17.003906 -13.367188 16.765625 -13.828125 C 16.523438 -14.296875 16.191406 -14.757812 15.765625 -15.21875 C 15.335938 -15.675781 14.179688 -16.691406 12.296875 -18.265625 C 10.003906 -20.109375 8.335938 -21.988281 7.296875 -23.90625 C 6.253906 -25.832031 5.734375 -27.941406 5.734375 -30.234375 C 5.734375 -32.804688 6.375 -35.113281 7.65625 -37.15625 C 8.945312 -39.207031 10.765625 -40.796875 13.109375 -41.921875 C 15.453125 -43.046875 18.070312 -43.609375 20.96875 -43.609375 C 25.65625 -43.609375 29.867188 -42.5625 33.609375 -40.46875 L 29.640625 -31.734375 C 26.296875 -33.460938 23.445312 -34.328125 21.09375 -34.328125 C 19.832031 -34.328125 18.863281 -34.050781 18.1875 -33.5 C 17.507812 -32.945312 17.171875 -32.144531 17.171875 -31.09375 C 17.171875 -30.125 17.5 -29.222656 18.15625 -28.390625 C 18.8125 -27.554688 20.0625 -26.445312 21.90625 -25.0625 C 24.21875 -23.351562 25.929688 -21.554688 27.046875 -19.671875 C 28.171875 -17.796875 28.734375 -15.640625 28.734375 -13.203125 Z M 28.734375 -13.203125 "/></g></g><g style="fill:rgb(100%,8.628845%,8.628845%);fill-opacity:1;"><g transform="translate(226.382364, 59.112833)"><path style="stroke:none;" d="M 0.96875 0 L 10.0625 -43 L 21.5625 -43 L 14.46875 -9.375 L 28.5 -9.375 L 26.5 0 Z M 0.96875 0 "/></g></g><g style="fill:rgb(100%,8.628845%,8.628845%);fill-opacity:1;"><g transform="translate(258.113807, 59.112833)"><path style="stroke:none;" d="M 26.375 -43.671875 C 31.476562 -43.671875 35.445312 -42.210938 38.28125 -39.296875 C 41.113281 -36.390625 42.53125 -32.332031 42.53125 -27.125 C 42.53125 -21.90625 41.550781 -17.132812 39.59375 -12.8125 C 37.644531 -8.488281 34.953125 -5.171875 31.515625 -2.859375 C 28.085938 -0.554688 24.113281 0.59375 19.59375 0.59375 C 14.3125 0.59375 10.234375 -0.863281 7.359375 -3.78125 C 4.492188 -6.707031 3.0625 -10.769531 3.0625 -15.96875 C 3.0625 -21.164062 4.070312 -25.941406 6.09375 -30.296875 C 8.113281 -34.648438 10.863281 -37.96875 14.34375 -40.25 C 17.820312 -42.53125 21.832031 -43.671875 26.375 -43.671875 Z M 30.90625 -27 C 30.90625 -29.238281 30.4375 -30.988281 29.5 -32.25 C 28.5625 -33.507812 27.195312 -34.140625 25.40625 -34.140625 C 23.46875 -34.140625 21.6875 -33.316406 20.0625 -31.671875 C 18.4375 -30.023438 17.132812 -27.757812 16.15625 -24.875 C 15.1875 -22 14.703125 -19.050781 14.703125 -16.03125 C 14.703125 -11.28125 16.664062 -8.90625 20.59375 -8.90625 C 22.445312 -8.90625 24.171875 -9.71875 25.765625 -11.34375 C 27.367188 -12.976562 28.625 -15.175781 29.53125 -17.9375 C 30.445312 -20.707031 30.90625 -23.726562 30.90625 -27 Z M 30.90625 -27 "/></g></g><g style="fill:rgb(100%,8.628845%,8.628845%);fill-opacity:1;"><g transform="translate(302.49077, 59.112833)"><path style="stroke:none;" d="M 26.375 -43.671875 C 31.476562 -43.671875 35.445312 -42.210938 38.28125 -39.296875 C 41.113281 -36.390625 42.53125 -32.332031 42.53125 -27.125 C 42.53125 -21.90625 41.550781 -17.132812 39.59375 -12.8125 C 37.644531 -8.488281 34.953125 -5.171875 31.515625 -2.859375 C 28.085938 -0.554688 24.113281 0.59375 19.59375 0.59375 C 14.3125 0.59375 10.234375 -0.863281 7.359375 -3.78125 C 4.492188 -6.707031 3.0625 -10.769531 3.0625 -15.96875 C 3.0625 -21.164062 4.070312 -25.941406 6.09375 -30.296875 C 8.113281 -34.648438 10.863281 -37.96875 14.34375 -40.25 C 17.820312 -42.53125 21.832031 -43.671875 26.375 -43.671875 Z M 30.90625 -27 C 30.90625 -29.238281 30.4375 -30.988281 29.5 -32.25 C 28.5625 -33.507812 27.195312 -34.140625 25.40625 -34.140625 C 23.46875 -34.140625 21.6875 -33.316406 20.0625 -31.671875 C 18.4375 -30.023438 17.132812 -27.757812 16.15625 -24.875 C 15.1875 -22 14.703125 -19.050781 14.703125 -16.03125 C 14.703125 -11.28125 16.664062 -8.90625 20.59375 -8.90625 C 22.445312 -8.90625 24.171875 -9.71875 25.765625 -11.34375 C 27.367188 -12.976562 28.625 -15.175781 29.53125 -17.9375 C 30.445312 -20.707031 30.90625 -23.726562 30.90625 -27 Z M 30.90625 -27 "/></g></g><g style="fill:rgb(100%,8.628845%,8.628845%);fill-opacity:1;"><g transform="translate(346.867733, 59.112833)"><path style="stroke:none;" d="M 18.4375 0 L 6.9375 0 L 13.90625 -33.5 L 4.59375 -33.5 L 6.625 -43 L 36.859375 -43 L 34.765625 -33.5 L 25.40625 -33.5 Z M 18.4375 0 "/></g></g><g style="fill:rgb(100%,8.628845%,8.628845%);fill-opacity:1;"><g transform="translate(380.098985, 59.112833)"><path style="stroke:none;" d="M 28.734375 -13.203125 C 28.734375 -8.847656 27.289062 -5.457031 24.40625 -3.03125 C 21.53125 -0.613281 17.515625 0.59375 12.359375 0.59375 C 10.203125 0.59375 8.160156 0.351562 6.234375 -0.125 C 4.316406 -0.613281 2.660156 -1.316406 1.265625 -2.234375 L 1.265625 -12.53125 C 2.910156 -11.488281 4.796875 -10.613281 6.921875 -9.90625 C 9.054688 -9.207031 10.984375 -8.859375 12.703125 -8.859375 C 14.148438 -8.859375 15.25 -9.160156 16 -9.765625 C 16.75 -10.367188 17.125 -11.234375 17.125 -12.359375 C 17.125 -12.878906 17.003906 -13.367188 16.765625 -13.828125 C 16.523438 -14.296875 16.191406 -14.757812 15.765625 -15.21875 C 15.335938 -15.675781 14.179688 -16.691406 12.296875 -18.265625 C 10.003906 -20.109375 8.335938 -21.988281 7.296875 -23.90625 C 6.253906 -25.832031 5.734375 -27.941406 5.734375 -30.234375 C 5.734375 -32.804688 6.375 -35.113281 7.65625 -37.15625 C 8.945312 -39.207031 10.765625 -40.796875 13.109375 -41.921875 C 15.453125 -43.046875 18.070312 -43.609375 20.96875 -43.609375 C 25.65625 -43.609375 29.867188 -42.5625 33.609375 -40.46875 L 29.640625 -31.734375 C 26.296875 -33.460938 23.445312 -34.328125 21.09375 -34.328125 C 19.832031 -34.328125 18.863281 -34.050781 18.1875 -33.5 C 17.507812 -32.945312 17.171875 -32.144531 17.171875 -31.09375 C 17.171875 -30.125 17.5 -29.222656 18.15625 -28.390625 C 18.8125 -27.554688 20.0625 -26.445312 21.90625 -25.0625 C 24.21875 -23.351562 25.929688 -21.554688 27.046875 -19.671875 C 28.171875 -17.796875 28.734375 -15.640625 28.734375 -13.203125 Z M 28.734375 -13.203125 "/></g></g></g></svg>